# Blender v2.74 (sub 0) OBJ File: 'hatanpaa.blend'
# www.blender.org
mtllib hatanpaa.mtl
o Cube
v 0.000000 25.078835 -1.090706
v 0.000000 28.446836 -1.000000
v 0.545353 25.078835 -0.944579
v 0.500000 28.446836 -0.866025
v 0.944579 25.078835 -0.545353
v 0.866026 28.446836 -0.500000
v 1.090706 25.078835 0.000000
v 1.000000 28.446836 0.000000
v 0.944579 25.078835 0.545353
v 0.866025 28.446836 0.500000
v 0.545353 25.078835 0.944579
v 0.500000 28.446836 0.866025
v 0.000000 25.078835 1.090706
v 0.000000 28.446836 1.000000
v -0.545353 25.078835 0.944579
v -0.500000 28.446836 0.866026
v -0.944579 25.078835 0.545353
v -0.866025 28.446836 0.500000
v -1.090706 25.078835 0.000000
v -1.000000 28.446836 0.000000
v -0.944579 25.078835 -0.545352
v -0.866026 28.446836 -0.499999
v -0.545353 25.078835 -0.944579
v -0.500001 28.446836 -0.866025
v 0.000000 25.076689 -1.010735
v 0.000000 28.444695 -0.920029
v 0.505369 25.076689 -0.875324
v 0.460016 28.444695 -0.796770
v 0.875324 25.076689 -0.505369
v 0.796770 28.444695 -0.460016
v 1.010735 25.076689 0.000000
v 0.920029 28.444695 0.000000
v 0.875324 25.076689 0.505369
v 0.796770 28.444695 0.460016
v 0.505369 25.076689 0.875324
v 0.460016 28.444695 0.796770
v 0.000000 25.076689 1.010735
v 0.000000 28.444695 0.920029
v -0.505369 25.076689 0.875324
v -0.460016 28.444695 0.796771
v -0.875324 25.076689 0.505369
v -0.796770 28.444695 0.460016
v -1.010735 25.076689 0.000000
v -0.920029 28.444695 0.000000
v -0.875324 25.076689 -0.505368
v -0.796771 28.444695 -0.460015
v -0.505369 25.076689 -0.875324
v -0.460016 28.444695 -0.796770
v 0.500000 28.501328 -0.866025
v 0.000000 28.501328 -1.000000
v 0.866026 28.501328 -0.500000
v 1.000000 28.501328 0.000000
v 0.866025 28.501328 0.500000
v 0.500000 28.501328 0.866025
v 0.000000 28.501328 1.000000
v -0.500000 28.501328 0.866026
v -0.866025 28.501328 0.500000
v -1.000000 28.501328 0.000000
v -0.866026 28.501328 -0.499999
v -0.500001 28.501328 -0.866025
v 0.460016 28.499182 -0.796770
v 0.000000 28.499182 -0.920029
v 0.796770 28.499182 -0.460016
v 0.920029 28.499182 0.000000
v 0.796770 28.499182 0.460016
v 0.460016 28.499182 0.796770
v 0.000000 28.499182 0.920029
v -0.460016 28.499182 0.796771
v -0.796770 28.499182 0.460016
v -0.920029 28.499182 0.000000
v -0.796771 28.499182 -0.460015
v -0.460016 28.499182 -0.796770
v 0.531918 28.445099 -0.921309
v 0.000000 28.445099 -1.063835
v 0.921309 28.445099 -0.531918
v 1.063835 28.445099 0.000000
v 0.921309 28.445099 0.531918
v 0.531918 28.445099 0.921309
v 0.000000 28.445099 1.063835
v -0.531917 28.445099 0.921309
v -0.921308 28.445099 0.531918
v -1.063835 28.445099 0.000000
v -0.921309 28.445099 -0.531917
v -0.531918 28.445099 -0.921308
v -0.921308 28.503067 0.531918
v 0.000000 28.503067 -1.063835
v 0.921309 28.503067 0.531918
v 0.531918 28.503067 0.921309
v 0.531918 28.503067 -0.921309
v 0.921309 28.503067 -0.531918
v 1.063835 28.503067 0.000000
v 0.000000 28.503067 1.063835
v -0.531917 28.503067 0.921309
v -1.063835 28.503067 0.000000
v -0.921309 28.503067 -0.531917
v -0.531918 28.503067 -0.921308
v -2.438151 0.003068 2.438151
v -1.960564 3.175986 1.960564
v -2.438151 0.003068 -2.438151
v -1.960564 3.175986 -1.960564
v 2.438151 0.003068 2.438151
v 1.960564 3.175986 1.960564
v 2.438151 0.003068 -2.438151
v 1.960564 3.175986 -1.960564
v -0.974292 0.090394 1.687524
v -0.483493 28.446064 0.837435
v -1.687523 0.090394 0.974293
v -0.837435 28.446064 0.483494
v -1.948584 0.090394 0.000001
v -0.966987 28.446064 0.000000
v -1.687524 0.090394 -0.974291
v -0.837435 28.446064 -0.483493
v -0.974293 0.090394 -1.687523
v -0.483494 28.446064 -0.837435
v -0.000000 0.090394 -1.948584
v 0.000000 28.446064 -0.966986
v -0.000000 0.090394 1.948584
v 0.000000 28.446064 0.966987
v 0.974292 0.090394 1.687524
v 0.483493 28.446064 0.837435
v 1.687523 0.090394 0.974293
v 0.837435 28.446064 0.483494
v 1.948584 0.090394 0.000001
v 0.966987 28.446064 0.000000
v 1.687524 0.090394 -0.974291
v 0.837435 28.446064 -0.483493
v 0.974293 0.090394 -1.687523
v 0.483494 28.446064 -0.837435
v -0.971277 0.003458 1.682302
v -0.479674 28.359129 0.830820
v -1.682301 0.003458 0.971277
v -0.830819 28.359129 0.479674
v -1.942554 0.003458 0.000001
v -0.959348 28.359129 0.000000
v -1.682302 0.003458 -0.971276
v -0.830820 28.359129 -0.479673
v -0.971278 0.003458 -1.682301
v -0.479675 28.359129 -0.830819
v -0.000000 0.003458 -1.942554
v 0.000000 28.359129 -0.959348
v -0.000000 0.003458 1.942554
v 0.000000 28.359129 0.959348
v 0.971277 0.003458 1.682302
v 0.479674 28.359129 0.830820
v 1.682301 0.003458 0.971277
v 0.830819 28.359129 0.479674
v 1.942554 0.003458 0.000001
v 0.959348 28.359129 0.000000
v 1.682302 0.003458 -0.971276
v 0.830820 28.359129 -0.479673
v 0.971278 0.003458 -1.682301
v 0.479675 28.359129 -0.830819
vt 0.000000 0.000000
vt 1.954363 -8.394215
vt 1.954363 8.817219
vt 1.526174 8.817219
vt 1.526174 -8.394215
vt 1.030525 8.817219
vt 1.030525 -8.394215
vt 0.500000 8.817219
vt 0.500000 -8.394215
vt -0.030524 8.817219
vt -0.030524 -8.394215
vt -0.526173 -8.394215
vt -0.526173 8.817219
vt -0.954363 8.817219
vt -0.954363 -8.394215
vn -0.988900 0.148800 0.000000
vn 0.000000 0.148800 -0.988900
vn 0.988900 0.148800 0.000000
vn 0.000000 0.148800 0.988900
vn 0.000000 1.000000 0.000000
vn -0.027200 -0.999600 0.007300
vn 0.019900 -0.999600 0.019900
vn 0.019900 -0.999600 -0.019900
vn -0.007300 -0.999600 0.027200
vn -0.019900 -0.999600 -0.019900
vn -0.019900 -0.999600 0.019900
vn -0.007300 -0.999600 -0.027200
vn 0.027200 -0.999600 -0.007300
vn 0.007300 -0.999600 0.027200
vn -0.027200 -0.999600 -0.007300
vn 0.007300 -0.999600 -0.027200
vn 0.027200 -0.999600 0.007300
vn 0.000000 -0.634300 -0.773000
vn 0.000000 -0.772100 -0.635400
vn 0.317700 -0.772100 -0.550300
vn 0.386500 -0.634300 -0.669500
vn 0.550300 -0.772100 -0.317700
vn 0.669500 -0.634300 -0.386500
vn 0.635400 -0.772100 0.000000
vn 0.773000 -0.634300 0.000000
vn 0.550300 -0.772100 0.317700
vn 0.669500 -0.634300 0.386500
vn 0.317700 -0.772100 0.550300
vn 0.386500 -0.634300 0.669500
vn 0.000000 -0.772100 0.635400
vn 0.000000 -0.634300 0.773000
vn -0.317700 -0.772100 0.550300
vn -0.386500 -0.634300 0.669500
vn -0.550300 -0.772100 0.317700
vn -0.669500 -0.634300 0.386500
vn -0.635400 -0.772100 0.000000
vn -0.773000 -0.634300 0.000000
vn -0.550300 -0.772100 -0.317700
vn -0.669500 -0.634300 -0.386500
vn -0.386500 -0.634300 -0.669500
vn -0.317700 -0.772100 -0.550300
vn -0.307500 -0.788400 0.532700
vn -0.499900 -0.013500 0.865900
vn 0.000000 -0.013500 0.999900
vn 0.000000 -0.788400 0.615100
vn -0.532700 -0.788400 0.307600
vn -0.865900 -0.013500 0.499900
vn -0.615100 -0.788400 0.000000
vn -0.999900 -0.013500 0.000000
vn -0.532700 -0.788400 -0.307600
vn -0.865900 -0.013500 -0.499900
vn -0.307500 -0.788400 -0.532700
vn -0.500000 -0.013500 -0.865900
vn 0.000000 -0.788400 -0.615100
vn 0.000000 -0.013500 -0.999900
vn 0.307500 -0.788400 -0.532700
vn 0.499900 -0.013500 -0.865900
vn 0.532700 -0.788400 -0.307500
vn 0.865900 -0.013500 -0.500000
vn 0.615100 -0.788400 0.000000
vn 0.999900 -0.013500 0.000000
vn 0.532700 -0.788400 0.307500
vn 0.865900 -0.013500 0.499900
vn 0.500000 -0.013500 0.865900
vn 0.307500 -0.788400 0.532700
vn -0.324900 0.760000 -0.562800
vn -0.562800 0.760000 -0.324900
vn -0.562800 0.760000 0.324900
vn -0.324900 0.760000 0.562800
vn 0.000000 0.999600 0.027000
vn -0.013500 0.999600 0.023400
vn 0.374700 0.662000 -0.649100
vn 0.000000 0.662000 -0.749500
vn 0.562800 0.760000 0.324900
vn 0.649900 0.760000 0.000000
vn 0.013500 0.999600 0.023400
vn -0.374700 0.662000 -0.649100
vn -0.023400 0.999600 0.013500
vn -0.027000 0.999600 0.000000
vn 0.749500 0.662000 0.000000
vn 0.649100 0.662000 -0.374700
vn 0.324900 0.760000 -0.562800
vn 0.000000 0.760000 -0.649900
vn -0.649900 0.760000 0.000000
vn 0.000000 0.760000 0.649900
vn 0.324900 0.760000 0.562800
vn -0.023400 0.999600 -0.013500
vn -0.013500 0.999600 -0.023400
vn 0.000000 0.999600 -0.027100
vn 0.013500 0.999600 -0.023400
vn 0.023400 0.999600 -0.013500
vn 0.562800 0.760000 -0.324900
vn 0.027000 0.999600 0.000000
vn 0.023400 0.999600 0.013500
vn 0.374700 0.662000 0.649100
vn 0.649100 0.662000 0.374700
vn -0.374700 0.662000 0.649100
vn 0.000000 0.662000 0.749500
vn -0.749500 0.662000 0.000000
vn -0.649100 0.662000 0.374700
vn 0.749500 -0.661900 0.000000
vn 0.649100 -0.661900 -0.374700
vn -0.374700 -0.661900 -0.649100
vn -0.649100 -0.661900 -0.374800
vn -0.649100 0.662000 -0.374700
vn -0.649100 -0.661900 0.374700
vn -0.374700 -0.661900 0.649100
vn 0.374800 -0.661900 -0.649100
vn 0.000000 -0.661900 -0.749500
vn 0.374700 -0.661900 0.649100
vn 0.649100 -0.661900 0.374700
vn 0.000000 -0.661900 0.749500
vn -0.749500 -0.661900 0.000000
vn 0.000000 -0.017200 0.999800
vn 0.000000 0.982300 0.187300
vn -0.093700 0.982300 0.162200
vn -0.499900 -0.017200 0.865900
vn -0.162300 0.982300 0.093600
vn -0.865900 -0.017200 0.499900
vn -0.187300 0.982300 0.000000
vn -0.999800 -0.017200 0.000000
vn -0.162200 0.982300 -0.093700
vn -0.865900 -0.017200 -0.499900
vn -0.499900 -0.017200 -0.865900
vn -0.093700 0.982300 -0.162200
vn 0.000000 0.982300 -0.187300
vn 0.000000 -0.017200 -0.999800
vn 0.499900 -0.017200 0.865900
vn 0.093700 0.982300 0.162200
vn 0.865900 -0.017200 0.499900
vn 0.162300 0.982300 0.093600
vn 0.999800 -0.017200 0.000000
vn 0.187300 0.982300 0.000000
vn 0.865900 -0.017200 -0.499900
vn 0.162200 0.982300 -0.093700
vn 0.499900 -0.017200 -0.865900
vn 0.093700 0.982300 -0.162200
vn -0.072900 -0.989300 0.126300
vn 0.499800 0.026700 -0.865700
vn 0.000000 0.026700 -0.999600
vn 0.000000 -0.989300 0.145900
vn -0.126300 -0.989300 0.072900
vn 0.865700 0.026700 -0.499800
vn -0.145900 -0.989300 0.000000
vn 0.999600 0.026700 0.000000
vn -0.126300 -0.989300 -0.072900
vn 0.865700 0.026700 0.499800
vn 0.000000 -0.989300 -0.145900
vn 0.000000 0.026700 0.999600
vn 0.499800 0.026700 0.865700
vn -0.072900 -0.989300 -0.126300
vn -0.499800 0.026700 -0.865700
vn 0.072900 -0.989300 0.126300
vn -0.865700 0.026700 -0.499800
vn 0.126300 -0.989300 0.072900
vn -0.999600 0.026700 0.000000
vn 0.145900 -0.989300 0.000000
vn -0.865700 0.026700 0.499800
vn 0.126300 -0.989300 -0.072900
vn -0.499800 0.026700 0.865700
vn 0.072900 -0.989300 -0.126300
usemtl Concrete
s off
f 98/1/1 100/1/1 99/1/1 97/1/1
f 100/1/2 104/1/2 103/1/2 99/1/2
f 104/1/3 102/1/3 101/1/3 103/1/3
f 102/1/4 98/1/4 97/1/4 101/1/4
f 102/1/5 104/1/5 100/1/5 98/1/5
usemtl Rust
f 8/1/6 6/1/6 75/1/6 76/1/6
f 24/1/7 22/1/7 83/1/7 84/1/7
f 18/1/8 16/1/8 80/1/8 81/1/8
f 4/1/9 2/1/9 74/1/9 73/1/9
f 12/1/10 10/1/10 77/1/10 78/1/10
f 6/1/11 4/1/11 73/1/11 75/1/11
f 14/1/12 12/1/12 78/1/12 79/1/12
f 20/1/13 18/1/13 81/1/13 82/1/13
f 2/1/14 24/1/14 84/1/14 74/1/14
f 10/1/15 8/1/15 76/1/15 77/1/15
f 16/1/16 14/1/16 79/1/16 80/1/16
f 22/1/17 20/1/17 82/1/17 83/1/17
s 1
f 1/1/18 2/1/19 4/1/20 3/1/21
f 3/1/21 4/1/20 6/1/22 5/1/23
f 5/1/23 6/1/22 8/1/24 7/1/25
f 7/1/25 8/1/24 10/1/26 9/1/27
f 9/1/27 10/1/26 12/1/28 11/1/29
f 11/1/29 12/1/28 14/1/30 13/1/31
f 13/1/31 14/1/30 16/1/32 15/1/33
f 15/1/33 16/1/32 18/1/34 17/1/35
f 17/1/35 18/1/34 20/1/36 19/1/37
f 19/1/37 20/1/36 22/1/38 21/1/39
f 23/1/40 24/1/41 2/1/19 1/1/18
f 21/1/39 22/1/38 24/1/41 23/1/40
f 27/1/42 28/1/43 26/1/44 25/1/45
f 29/1/46 30/1/47 28/1/43 27/1/42
f 31/1/48 32/1/49 30/1/47 29/1/46
f 33/1/50 34/1/51 32/1/49 31/1/48
f 35/1/52 36/1/53 34/1/51 33/1/50
f 37/1/54 38/1/55 36/1/53 35/1/52
f 39/1/56 40/1/57 38/1/55 37/1/54
f 41/1/58 42/1/59 40/1/57 39/1/56
f 43/1/60 44/1/61 42/1/59 41/1/58
f 45/1/62 46/1/63 44/1/61 43/1/60
f 25/1/45 26/1/44 48/1/64 47/1/65
f 47/1/65 48/1/64 46/1/63 45/1/62
f 1/1/18 3/1/21 27/1/42 25/1/45
f 34/1/51 36/1/53 66/1/66 65/1/67
f 3/1/21 5/1/23 29/1/46 27/1/42
f 28/1/43 30/1/47 63/1/68 61/1/69
f 5/1/23 7/1/25 31/1/48 29/1/46
f 50/1/70 49/1/71 89/1/72 86/1/73
f 7/1/25 9/1/27 33/1/50 31/1/48
f 9/1/27 11/1/29 35/1/52 33/1/50
f 44/1/61 46/1/63 71/1/74 70/1/75
f 11/1/29 13/1/31 37/1/54 35/1/52
f 60/1/76 50/1/70 86/1/73 96/1/77
f 13/1/31 15/1/33 39/1/56 37/1/54
f 51/1/78 52/1/79 91/1/80 90/1/81
f 15/1/33 17/1/35 41/1/58 39/1/56
f 38/1/55 40/1/57 68/1/82 67/1/83
f 17/1/35 19/1/37 43/1/60 41/1/58
f 32/1/49 34/1/51 65/1/67 64/1/84
f 19/1/37 21/1/39 45/1/62 43/1/60
f 21/1/39 23/1/40 47/1/65 45/1/62
f 23/1/40 1/1/18 25/1/45 47/1/65
f 48/1/64 26/1/44 62/1/85 72/1/86
f 49/1/71 50/1/70 62/1/85 61/1/69
f 51/1/78 49/1/71 61/1/69 63/1/68
f 52/1/79 51/1/78 63/1/68 64/1/84
f 53/1/87 52/1/79 64/1/84 65/1/67
f 54/1/88 53/1/87 65/1/67 66/1/66
f 55/1/89 54/1/88 66/1/66 67/1/83
f 56/1/90 55/1/89 67/1/83 68/1/82
f 57/1/91 56/1/90 68/1/82 69/1/92
f 58/1/93 57/1/91 69/1/92 70/1/75
f 59/1/94 58/1/93 70/1/75 71/1/74
f 60/1/76 59/1/94 71/1/74 72/1/86
f 50/1/70 60/1/76 72/1/86 62/1/85
f 40/1/57 42/1/59 69/1/92 68/1/82
f 53/1/87 54/1/88 88/1/95 87/1/96
f 26/1/44 28/1/43 61/1/69 62/1/85
f 46/1/63 48/1/64 72/1/86 71/1/74
f 55/1/89 56/1/90 93/1/97 92/1/98
f 30/1/47 32/1/49 64/1/84 63/1/68
f 36/1/53 38/1/55 67/1/83 66/1/66
f 42/1/59 44/1/61 70/1/75 69/1/92
f 57/1/91 58/1/93 94/1/99 85/1/100
f 76/1/101 75/1/102 90/1/81 91/1/80
f 84/1/103 83/1/104 95/1/105 96/1/77
f 81/1/106 80/1/107 93/1/97 85/1/100
f 73/1/108 74/1/109 86/1/73 89/1/72
f 78/1/110 77/1/111 87/1/96 88/1/95
f 75/1/102 73/1/108 89/1/72 90/1/81
f 79/1/112 78/1/110 88/1/95 92/1/98
f 82/1/113 81/1/106 85/1/100 94/1/99
f 74/1/109 84/1/103 96/1/77 86/1/73
f 77/1/111 76/1/101 91/1/80 87/1/96
f 80/1/107 79/1/112 92/1/98 93/1/97
f 83/1/104 82/1/113 94/1/99 95/1/105
f 58/1/93 59/1/94 95/1/105 94/1/99
f 56/1/90 57/1/91 85/1/100 93/1/97
f 54/1/88 55/1/89 92/1/98 88/1/95
f 52/1/79 53/1/87 87/1/96 91/1/80
f 49/1/71 51/1/78 90/1/81 89/1/72
f 59/1/94 60/1/76 96/1/77 95/1/105
usemtl Brick
f 117/2/114 118/3/115 106/4/116 105/5/117
f 105/5/117 106/4/116 108/6/118 107/7/119
f 107/7/119 108/6/118 110/8/120 109/9/121
f 109/9/121 110/8/120 112/10/122 111/11/123
f 113/12/124 114/13/125 116/14/126 115/15/127
f 111/11/123 112/10/122 114/13/125 113/12/124
f 117/2/114 119/5/128 120/4/129 118/3/115
f 119/5/128 121/7/130 122/6/131 120/4/129
f 121/7/130 123/9/132 124/8/133 122/6/131
f 123/9/132 125/11/134 126/10/135 124/8/133
f 127/12/136 115/15/127 116/14/126 128/13/137
f 125/11/134 127/12/136 128/13/137 126/10/135
f 129/5/138 130/4/139 142/3/140 141/2/141
f 131/7/142 132/6/143 130/4/139 129/5/138
f 133/9/144 134/8/145 132/6/143 131/7/142
f 135/11/146 136/10/147 134/8/145 133/9/144
f 139/15/148 140/14/149 138/13/150 137/12/151
f 137/12/151 138/13/150 136/10/147 135/11/146
f 142/3/140 144/4/152 143/5/153 141/2/141
f 144/4/152 146/6/154 145/7/155 143/5/153
f 146/6/154 148/8/156 147/9/157 145/7/155
f 148/8/156 150/10/158 149/11/159 147/9/157
f 152/13/160 140/14/149 139/15/148 151/12/161
f 150/10/158 152/13/160 151/12/161 149/11/159
f 117/2/114 105/5/117 129/5/138 141/2/141
f 106/4/116 118/3/115 142/3/140 130/4/139
f 105/5/117 107/7/119 131/7/142 129/5/138
f 108/6/118 106/4/116 130/4/139 132/6/143
f 107/7/119 109/9/121 133/9/144 131/7/142
f 110/8/120 108/6/118 132/6/143 134/8/145
f 109/9/121 111/11/123 135/11/146 133/9/144
f 112/10/122 110/8/120 134/8/145 136/10/147
f 111/11/123 113/12/124 137/12/151 135/11/146
f 114/13/125 112/10/122 136/10/147 138/13/150
f 113/12/124 115/15/127 139/15/148 137/12/151
f 116/14/126 114/13/125 138/13/150 140/14/149
f 119/5/128 117/2/114 141/2/141 143/5/153
f 118/3/115 120/4/129 144/4/152 142/3/140
f 121/7/130 119/5/128 143/5/153 145/7/155
f 120/4/129 122/6/131 146/6/154 144/4/152
f 123/9/132 121/7/130 145/7/155 147/9/157
f 122/6/131 124/8/133 148/8/156 146/6/154
f 125/11/134 123/9/132 147/9/157 149/11/159
f 124/8/133 126/10/135 150/10/158 148/8/156
f 127/12/136 125/11/134 149/11/159 151/12/161
f 126/10/135 128/13/137 152/13/160 150/10/158
f 115/15/127 127/12/136 151/12/161 139/15/148
f 128/13/137 116/14/126 140/14/149 152/13/160
