# Blender v2.74 (sub 0) OBJ File: 'tampella.blend'
# www.blender.org
mtllib tampella.mtl
o Cylinder.001
v 4.826999 0.000000 -2.786869
v 4.826999 2.000000 -2.786869
v 4.826998 0.000000 2.786869
v 4.826998 2.000000 2.786869
v -4.826999 0.000000 2.786868
v -4.826999 2.000000 2.786868
v -4.826999 0.000000 -2.786868
v -4.826999 2.000000 -2.786868
v 2.283372 0.000000 -3.954917
v 1.084151 97.000000 -1.877804
v 3.954917 0.000000 -2.283372
v 1.877804 97.000000 -1.084151
v 4.566744 0.000000 -0.000000
v 2.168302 97.000000 0.000000
v 3.954917 0.000000 2.283372
v 1.877804 97.000000 1.084151
v 2.283373 0.000000 3.954916
v 1.084151 97.000000 1.877805
v 1.084151 97.000000 -1.877804
v 1.877804 97.000000 -1.084151
v 2.168302 97.000000 0.000000
v 1.877804 97.000000 1.084151
v 1.084151 97.000000 1.877805
v 0.000000 0.000000 -5.573738
v 0.000000 2.000000 -5.573738
v -4.826999 0.000000 -2.786869
v -4.826999 2.000000 -2.786869
v -4.826998 0.000000 2.786869
v -4.826998 2.000000 2.786869
v 0.000000 0.000000 5.573738
v 0.000000 2.000000 5.573738
v 4.826999 0.000000 2.786868
v 4.826999 2.000000 2.786868
v 4.826999 0.000000 -2.786868
v 4.826999 2.000000 -2.786868
v 0.000000 0.000000 -4.566745
v 0.000000 97.000000 -2.168302
v -2.283372 0.000000 -3.954917
v -1.084151 97.000000 -1.877804
v -3.954917 0.000000 -2.283372
v -1.877804 97.000000 -1.084151
v -4.566744 0.000000 -0.000000
v -2.168302 97.000000 0.000000
v -3.954917 0.000000 2.283372
v -1.877804 97.000000 1.084151
v -2.283373 0.000000 3.954916
v -1.084151 97.000000 1.877805
v 0.000000 0.000000 4.566744
v 0.000000 97.000000 2.168302
v 0.000000 97.000000 -2.168302
v -1.084151 97.000000 -1.877804
v -1.877804 97.000000 -1.084151
v -2.168302 97.000000 0.000000
v -1.877804 97.000000 1.084151
v -1.084151 97.000000 1.877805
v 0.000000 97.000000 2.168302
v 0.000000 2.000004 -0.000000
v 4.653794 0.000000 -2.686872
v 4.689751 1.878006 -2.707630
v 4.653793 0.000000 2.686872
v 4.689750 1.878006 2.707631
v -4.653794 0.000000 2.686871
v -4.689751 1.878006 2.707630
v -4.653794 0.000000 -2.686871
v -4.689751 1.878006 -2.707630
v 2.183406 -0.004936 -3.781767
v 1.015399 96.854774 -1.758721
v 3.781767 -0.004936 -2.183406
v 1.758721 96.854774 -1.015399
v 4.366811 -0.004936 -0.000000
v 2.030792 96.854774 0.000000
v 3.781767 -0.004936 2.183406
v 1.758721 96.854774 1.015399
v 2.183406 -0.004936 3.781767
v 1.015399 96.854774 1.758721
v 1.084151 96.800003 -1.877804
v 1.877804 96.800003 -1.084151
v 2.168302 96.800003 0.000000
v 1.877804 96.800003 1.084151
v 1.084151 96.800003 1.877805
v 0.000000 0.000000 -5.373744
v 0.000000 1.878006 -5.415261
v -4.653794 0.000000 -2.686872
v -4.689751 1.878006 -2.707630
v -4.653793 0.000000 2.686872
v -4.689750 1.878006 2.707631
v 0.000000 0.000000 5.373738
v 0.000000 1.878006 5.415261
v 4.653794 0.000000 2.686871
v 4.689751 1.878006 2.707630
v 4.653794 0.000000 -2.686871
v 4.689751 1.878006 -2.707630
v 0.000000 -0.004936 -4.366812
v 0.000000 96.854774 -2.030791
v -2.183406 -0.004936 -3.781767
v -1.015399 96.854774 -1.758721
v -3.781767 -0.004936 -2.183406
v -1.758721 96.854774 -1.015399
v -4.366811 -0.004936 -0.000000
v -2.030792 96.854774 0.000000
v -3.781767 -0.004936 2.183406
v -1.758721 96.854774 1.015399
v -2.183406 -0.004936 3.781767
v -1.015399 96.854774 1.758721
v 0.000000 -0.004936 4.366811
v 0.000000 96.854774 2.030791
v 0.000000 96.800003 -2.168302
v -1.084151 96.800003 -1.877804
v -1.877804 96.800003 -1.084151
v -2.168302 96.800003 0.000000
v -1.877804 96.800003 1.084151
v -1.084151 96.800003 1.877805
v 0.000000 96.800003 2.168302
v 0.000000 1.800003 -0.000000
vt 2.270163 -14.580268
vt 1.458636 15.601124
vt 0.931523 15.590087
vt 1.534760 -14.595333
vt 0.403870 15.581595
vt 0.802797 -14.605313
vt -0.123246 15.576426
vt 0.070839 -14.610306
vt -0.650158 15.574715
vt -0.661081 -14.610325
vt -1.176821 15.576270
vt -1.392929 -14.605375
vt -1.702743 15.580495
vt -2.124673 -14.595461
vt -1.176691 15.585428
vt -1.702590 15.589628
vt -0.650080 15.583884
vt -0.123227 15.585598
vt 0.403831 15.590779
vt 0.931432 15.599291
vt 1.458524 15.610325
vt 0.000000 0.000000
vn 0.000000 -0.635900 -0.771800
vn 0.000000 0.619000 0.785400
vn 0.948400 0.046900 0.313600
vn 0.385900 -0.635900 -0.668400
vn 0.852100 0.024300 0.522800
vn 0.668400 -0.635900 -0.385900
vn 0.696000 0.017200 0.717800
vn 0.771800 -0.635900 0.000000
vn 0.492200 0.014000 0.870400
vn 0.668400 -0.635900 0.385900
vn 0.254800 0.012600 0.966900
vn 0.385900 -0.635900 0.668400
vn 0.000000 0.012100 0.999900
vn 0.000000 -0.635900 0.771800
vn -0.947200 0.000000 0.320600
vn 0.000000 0.000000 1.000000
vn -0.850600 0.000000 0.525700
vn -0.694700 0.000000 0.719200
vn -0.491300 0.000000 0.871000
vn -0.254300 0.000000 0.967100
vn -0.385900 -0.635900 -0.668400
vn -0.948400 0.046900 0.313600
vn -0.668400 -0.635900 -0.385900
vn -0.852100 0.024300 0.522800
vn -0.771800 -0.635900 0.000000
vn -0.696000 0.017200 0.717800
vn -0.668400 -0.635900 0.385900
vn -0.492200 0.014000 0.870400
vn -0.385900 -0.635900 0.668400
vn -0.254800 0.012600 0.966900
vn 0.947200 0.000000 0.320600
vn 0.850600 0.000000 0.525700
vn 0.694700 0.000000 0.719200
vn 0.491300 0.000000 0.871000
vn 0.254300 0.000000 0.967100
vn -0.308600 -0.786800 0.534500
vn -0.231100 0.886700 0.400400
vn 0.000000 0.886700 0.462300
vn 0.000000 -0.786800 0.617200
vn -0.534500 -0.786800 0.308600
vn -0.400400 0.886700 0.231100
vn -0.617200 -0.786800 0.000000
vn -0.462300 0.886700 0.000000
vn -0.534500 -0.786800 -0.308600
vn -0.400400 0.886700 -0.231100
vn -0.308600 -0.786800 -0.534500
vn -0.231100 0.886700 -0.400400
vn 0.000000 -0.786800 -0.617200
vn 0.000000 0.886700 -0.462300
vn 0.000000 0.766600 -0.642100
vn -0.321000 0.766600 -0.556000
vn -0.556000 0.766600 -0.321000
vn -0.642100 0.766600 0.000000
vn -0.556000 0.766600 0.321000
vn -0.321000 0.766600 0.556000
vn 0.000000 0.766600 0.642100
vn 0.231100 0.886700 0.400400
vn 0.308600 -0.786800 0.534500
vn 0.400400 0.886700 0.231100
vn 0.534500 -0.786800 0.308600
vn 0.462300 0.886700 0.000000
vn 0.617200 -0.786800 0.000000
vn 0.400400 0.886700 -0.231100
vn 0.534500 -0.786800 -0.308600
vn 0.231100 0.886700 -0.400400
vn 0.308600 -0.786800 -0.534500
vn 0.321000 0.766600 -0.556000
vn 0.556000 0.766600 -0.321000
vn 0.642100 0.766600 0.000000
vn 0.556000 0.766600 0.321000
vn 0.321000 0.766600 0.556000
vn 0.500000 0.000000 -0.866000
vn 1.000000 0.000000 0.000000
vn 0.500000 0.000000 0.866000
vn -0.500000 0.000000 0.866000
vn -0.500000 0.000000 -0.866000
vn -1.000000 0.000000 0.000000
vn 0.000000 1.000000 -0.000000
vn -0.499900 0.019100 0.865900
vn -0.999800 0.019100 -0.000000
vn -0.499900 0.019100 -0.865900
vn 0.499900 0.019100 -0.865900
vn 0.499900 0.019100 0.865900
vn 0.999800 0.019100 0.000000
vn 0.008300 -0.999900 -0.014400
vn -0.008300 -0.999900 -0.014400
vn -0.016600 -0.999900 0.000000
vn -0.008300 -0.999900 0.014400
vn 0.008300 -0.999900 0.014400
vn 0.016600 -0.999900 -0.000000
vn 0.000000 -1.000000 0.000000
usemtl Brick
s 1
f 36/1/1 37/2/2 10/3/3 9/4/4
f 9/4/4 10/3/3 12/5/5 11/6/6
f 11/6/6 12/5/5 14/7/7 13/8/8
f 13/8/8 14/7/7 16/9/9 15/10/10
f 15/10/10 16/9/9 18/11/11 17/12/12
f 17/12/12 18/11/11 49/13/13 48/14/14
f 49/13/13 18/11/11 23/15/15 56/16/16
f 18/11/11 16/9/9 22/17/17 23/15/15
f 16/9/9 14/7/7 21/18/18 22/17/17
f 14/7/7 12/5/5 20/19/19 21/18/18
f 12/5/5 10/3/3 19/20/20 20/19/19
f 10/3/3 37/2/2 50/21/16 19/20/20
f 36/1/1 38/4/21 39/3/22 37/2/2
f 38/4/21 40/6/23 41/5/24 39/3/22
f 40/6/23 42/8/25 43/7/26 41/5/24
f 42/8/25 44/10/27 45/9/28 43/7/26
f 44/10/27 46/12/29 47/11/30 45/9/28
f 46/12/29 48/14/14 49/13/13 47/11/30
f 49/13/13 56/16/16 55/15/31 47/11/30
f 47/11/30 55/15/31 54/17/32 45/9/28
f 45/9/28 54/17/32 53/18/33 43/7/26
f 43/7/26 53/18/33 52/19/34 41/5/24
f 41/5/24 52/19/34 51/20/35 39/3/22
f 39/3/22 51/20/35 50/21/16 37/2/2
f 66/4/36 67/3/37 94/2/38 93/1/39
f 68/6/40 69/5/41 67/3/37 66/4/36
f 70/8/42 71/7/43 69/5/41 68/6/40
f 72/10/44 73/9/45 71/7/43 70/8/42
f 74/12/46 75/11/47 73/9/45 72/10/44
f 105/14/48 106/13/49 75/11/47 74/12/46
f 113/16/50 80/15/51 75/11/47 106/13/49
f 80/15/51 79/17/52 73/9/45 75/11/47
f 79/17/52 78/18/53 71/7/43 73/9/45
f 78/18/53 77/19/54 69/5/41 71/7/43
f 77/19/54 76/20/55 67/3/37 69/5/41
f 76/20/55 107/21/56 94/2/38 67/3/37
f 94/2/38 96/3/57 95/4/58 93/1/39
f 96/3/57 98/5/59 97/6/60 95/4/58
f 98/5/59 100/7/61 99/8/62 97/6/60
f 100/7/61 102/9/63 101/10/64 99/8/62
f 102/9/63 104/11/65 103/12/66 101/10/64
f 104/11/65 106/13/49 105/14/48 103/12/66
f 104/11/65 112/15/67 113/16/50 106/13/49
f 102/9/63 111/17/68 112/15/67 104/11/65
f 100/7/61 110/18/69 111/17/68 102/9/63
f 98/5/59 109/19/70 110/18/69 100/7/61
f 96/3/57 108/20/71 109/19/70 98/5/59
f 94/2/38 107/21/56 108/20/71 96/3/57
f 36/1/1 9/4/4 66/4/36 93/1/39
f 9/4/4 11/6/6 68/6/40 66/4/36
f 11/6/6 13/8/8 70/8/42 68/6/40
f 13/8/8 15/10/10 72/10/44 70/8/42
f 15/10/10 17/12/12 74/12/46 72/10/44
f 17/12/12 48/14/14 105/14/48 74/12/46
f 19/20/20 50/21/16 107/21/56 76/20/55
f 20/19/19 19/20/20 76/20/55 77/19/54
f 21/18/18 20/19/19 77/19/54 78/18/53
f 22/17/17 21/18/18 78/18/53 79/17/52
f 23/15/15 22/17/17 79/17/52 80/15/51
f 56/16/16 23/15/15 80/15/51 113/16/50
f 38/4/21 36/1/1 93/1/39 95/4/58
f 40/6/23 38/4/21 95/4/58 97/6/60
f 42/8/25 40/6/23 97/6/60 99/8/62
f 44/10/27 42/8/25 99/8/62 101/10/64
f 46/12/29 44/10/27 101/10/64 103/12/66
f 48/14/14 46/12/29 103/12/66 105/14/48
f 50/21/16 51/20/35 108/20/71 107/21/56
f 51/20/35 52/19/34 109/19/70 108/20/71
f 52/19/34 53/18/33 110/18/69 109/19/70
f 53/18/33 54/17/32 111/17/68 110/18/69
f 54/17/32 55/15/31 112/15/67 111/17/68
f 55/15/31 56/16/16 113/16/50 112/15/67
usemtl Material.001
s off
f 24/22/72 25/22/72 2/22/72 1/22/72
f 1/22/73 2/22/73 4/22/73 3/22/73
f 3/22/74 4/22/74 31/22/74 30/22/74
f 30/22/75 31/22/75 6/22/75 5/22/75
f 7/22/76 8/22/76 25/22/76 24/22/76
f 5/22/77 6/22/77 8/22/77 7/22/77
f 2/22/78 25/22/78 57/22/78
f 25/22/78 8/22/78 57/22/78
f 8/22/78 6/22/78 57/22/78
f 6/22/78 31/22/78 57/22/78
f 31/22/78 4/22/78 57/22/78
f 4/22/78 2/22/78 57/22/78
f 24/22/76 26/22/76 27/22/76 25/22/76
f 26/22/77 28/22/77 29/22/77 27/22/77
f 28/22/75 30/22/75 31/22/75 29/22/75
f 30/22/74 32/22/74 33/22/74 31/22/74
f 34/22/72 24/22/72 25/22/72 35/22/72
f 32/22/73 34/22/73 35/22/73 33/22/73
f 27/22/78 57/22/78 25/22/78
f 25/22/78 57/22/78 35/22/78
f 35/22/78 57/22/78 33/22/78
f 33/22/78 57/22/78 31/22/78
f 31/22/78 57/22/78 29/22/78
f 29/22/78 57/22/78 27/22/78
f 58/22/79 59/22/79 82/22/79 81/22/79
f 60/22/80 61/22/80 59/22/80 58/22/80
f 87/22/81 88/22/81 61/22/81 60/22/81
f 62/22/82 63/22/82 88/22/82 87/22/82
f 81/22/83 82/22/83 65/22/83 64/22/83
f 64/22/84 65/22/84 63/22/84 62/22/84
f 114/22/85 82/22/85 59/22/85
f 114/22/86 65/22/86 82/22/86
f 114/22/87 63/22/87 65/22/87
f 114/22/88 88/22/88 63/22/88
f 114/22/89 61/22/89 88/22/89
f 114/22/90 59/22/90 61/22/90
f 82/22/83 84/22/83 83/22/83 81/22/83
f 84/22/84 86/22/84 85/22/84 83/22/84
f 86/22/82 88/22/82 87/22/82 85/22/82
f 88/22/81 90/22/81 89/22/81 87/22/81
f 92/22/79 82/22/79 81/22/79 91/22/79
f 90/22/80 92/22/80 91/22/80 89/22/80
f 82/22/86 114/22/86 84/22/86
f 92/22/85 114/22/85 82/22/85
f 90/22/90 114/22/90 92/22/90
f 88/22/89 114/22/89 90/22/89
f 86/22/88 114/22/88 88/22/88
f 84/22/87 114/22/87 86/22/87
f 24/22/91 1/22/91 58/22/91 81/22/91
f 1/22/91 3/22/91 60/22/91 58/22/91
f 3/22/91 30/22/91 87/22/91 60/22/91
f 30/22/91 5/22/91 62/22/91 87/22/91
f 5/22/91 7/22/91 64/22/91 62/22/91
f 7/22/91 24/22/91 81/22/91 64/22/91
f 26/22/91 24/22/91 81/22/91 83/22/91
f 28/22/91 26/22/91 83/22/91 85/22/91
f 30/22/91 28/22/91 85/22/91 87/22/91
f 32/22/91 30/22/91 87/22/91 89/22/91
f 34/22/91 32/22/91 89/22/91 91/22/91
f 24/22/91 34/22/91 91/22/91 81/22/91
