# Blender v2.74 (sub 0) OBJ File: 'icons.blend'
# www.blender.org
mtllib icon_restaurant.mtl
o Cube.002_Cube.003
v -0.308500 1.824554 0.790289
v -0.308500 2.160424 0.454419
v 0.308500 1.824554 0.790289
v 0.308500 2.160424 0.454419
v -0.308500 2.780388 0.637172
v 0.308500 2.780388 0.637172
v 0.308500 2.007308 1.410252
v -0.308500 2.007308 1.410252
v -0.362807 0.071559 -0.903581
v -0.327982 0.004721 -1.008334
v -0.359131 0.030663 -0.948480
v -0.346384 0.006198 -0.986822
v -0.362807 0.466554 -1.298576
v -0.327982 0.361801 -1.365415
v -0.359131 0.421655 -1.339473
v -0.346384 0.383313 -1.363937
v 0.362807 0.071559 -0.903581
v 0.327982 0.004721 -1.008334
v 0.359131 0.030663 -0.948480
v 0.346384 0.006198 -0.986822
v 0.362807 0.466554 -1.298576
v 0.327982 0.361801 -1.365415
v 0.359131 0.421655 -1.339473
v 0.346384 0.383313 -1.363937
v -0.308500 2.200197 0.414645
v -0.308500 2.434077 0.401724
v -0.308500 2.298738 0.375310
v 0.308500 2.200197 0.414645
v 0.308500 2.298738 0.375310
v 0.308500 2.434077 0.401724
v 0.308500 1.784781 0.830062
v 0.308500 1.771860 1.063942
v 0.308500 1.745445 0.928603
v -0.308500 1.784781 0.830062
v -0.308500 1.745445 0.928603
v -0.308500 1.771860 1.063942
v -0.308500 2.264143 1.688143
v -0.308500 3.082835 1.753634
v -0.308500 2.419331 1.806182
v -0.308500 2.596476 1.875520
v -0.308500 2.778237 1.889367
v -0.308500 2.946824 1.846370
v 0.308500 3.082835 1.753634
v 0.308500 2.264143 1.688143
v 0.308500 2.946824 1.846370
v 0.308500 2.778237 1.889367
v 0.308500 2.596476 1.875520
v 0.308500 2.419331 1.806182
v 0.308500 3.058278 0.894008
v 0.308500 3.123769 1.712699
v 0.308500 3.176318 1.049195
v 0.308500 3.245655 1.226340
v 0.308500 3.259503 1.408102
v 0.308500 3.216506 1.576688
v -0.308500 3.123769 1.712699
v -0.308500 3.058278 0.894008
v -0.308500 3.216506 1.576688
v -0.308500 3.259503 1.408102
v -0.308500 3.245655 1.226340
v -0.308500 3.176318 1.049195
v -0.308500 2.523309 1.153174
v 0.308500 2.523309 1.153173
v -0.308500 2.160424 -0.539172
v -0.308500 1.824554 -0.875042
v 0.308500 2.160424 -0.539172
v 0.308500 1.824554 -0.875042
v -0.308500 2.327929 -0.822910
v -0.308500 2.077723 -1.073116
v 0.308500 2.077723 -1.073116
v 0.308500 2.327929 -0.822910
v -0.308500 1.858243 -1.292596
v 0.308500 1.858243 -1.292596
v 0.308500 1.979464 -1.171374
v -0.308500 2.202826 -0.948013
v 0.308500 2.426187 -0.724652
v 0.308500 2.547408 -0.603430
v -0.308500 2.547408 -0.603430
v -0.308500 1.979464 -1.171374
v -0.308500 2.426187 -0.724652
v -0.308500 2.140274 -1.010565
v 0.308500 2.140274 -1.010565
v 0.308500 2.265377 -0.885462
v -0.308500 2.265377 -0.885462
v -0.308500 3.088017 -1.833205
v 0.308500 3.088017 -1.833205
v -0.362807 0.466554 1.213823
v -0.327982 0.361801 1.280661
v -0.359131 0.421655 1.254720
v -0.346384 0.383313 1.279184
v -0.362807 0.071559 0.818828
v -0.327982 0.004721 0.923581
v -0.359131 0.030662 0.863727
v -0.346384 0.006198 0.902069
v 0.362807 0.466554 1.213823
v 0.327982 0.361801 1.280661
v 0.359131 0.421655 1.254720
v 0.346384 0.383313 1.279184
v 0.362807 0.071559 0.818828
v 0.327982 0.004721 0.923581
v 0.359131 0.030662 0.863727
v 0.346384 0.006198 0.902069
v -0.308500 1.671714 -1.027882
v -0.308500 1.748338 -1.172217
v -0.308500 1.681771 -1.077031
v 0.308500 1.671714 -1.027882
v 0.308500 1.681771 -1.077031
v 0.308500 1.748338 -1.172217
v 0.308500 2.282694 -0.416902
v 0.308500 2.427029 -0.493526
v 0.308500 2.331844 -0.426958
v -0.308500 2.282694 -0.416902
v -0.308500 2.331844 -0.426958
v -0.308500 2.427029 -0.493526
v -0.308500 2.794343 -2.126878
v -0.308500 2.455686 -1.890039
v -0.308500 2.730338 -2.113782
v -0.308500 2.606381 -2.027093
v 0.308500 2.455686 -1.890039
v 0.308500 2.794343 -2.126878
v 0.308500 2.606381 -2.027093
v 0.308500 2.730338 -2.113782
v 0.308500 3.381691 -1.539531
v 0.308500 3.144852 -1.200874
v 0.308500 3.368594 -1.475525
v 0.308500 3.281905 -1.351568
v -0.308500 3.144852 -1.200874
v -0.308500 3.381691 -1.539531
v -0.308500 3.281905 -1.351568
v -0.308500 3.368594 -1.475525
v -0.308500 2.576908 -1.768818
v -0.308500 2.813747 -2.107475
v -0.308500 2.713961 -1.919513
v -0.308500 2.800650 -2.043470
v 0.308500 3.023631 -1.322095
v 0.308500 3.362288 -1.558934
v 0.308500 3.174325 -1.459149
v 0.308500 3.298282 -1.545838
v 0.308500 2.813747 -2.107475
v 0.308500 2.576908 -1.768818
v 0.308500 2.800650 -2.043470
v 0.308500 2.713961 -1.919513
v -0.308500 2.862821 -1.482905
v -0.308500 3.099659 -1.821562
v -0.308500 2.999874 -1.633600
v -0.308500 3.086563 -1.757557
v 0.308500 2.737718 -1.608008
v 0.308500 3.076375 -1.844847
v 0.308500 2.888412 -1.745062
v 0.308500 3.012369 -1.831751
v -0.308500 3.362288 -1.558934
v -0.308500 3.023631 -1.322095
v -0.308500 3.298282 -1.545838
v -0.308500 3.174325 -1.459149
v -0.308500 3.076375 -1.844847
v -0.308500 2.737718 -1.608008
v -0.308500 3.012369 -1.831751
v -0.308500 2.888412 -1.745062
v 0.308500 3.099659 -1.821562
v 0.308500 2.862821 -1.482905
v 0.308500 3.086563 -1.757557
v 0.308500 2.999874 -1.633600
v 0.000000 2.059869 -1.090970
v -0.308500 2.094305 -0.839492
v 0.308500 2.626136 -1.371324
v -0.308500 2.626136 -1.371323
v -0.308500 2.910031 -1.087274
v 0.000000 2.345782 -0.805057
v 0.308500 2.094305 -0.839492
v 0.308500 2.910031 -1.087274
v 0.308500 2.342086 -1.655218
v -0.308500 2.342086 -1.655218
vn 0.000000 -0.694900 0.719100
vn 0.999800 0.015800 0.015800
vn 0.000000 -0.707100 -0.707100
vn 0.000000 0.719100 -0.694900
vn 0.000000 0.678700 -0.734400
vn 0.000000 -0.827000 0.562200
vn 1.000000 0.000000 -0.000000
vn 0.000000 0.562200 -0.827000
vn 0.000000 0.068500 -0.997700
vn 0.000000 0.537900 -0.843000
vn 0.000000 0.673400 -0.739300
vn 0.000000 -0.997700 0.068500
vn 0.000000 -0.843000 0.537900
vn 0.000000 -0.739300 0.673400
vn 0.662000 -0.530000 -0.530000
vn 0.961200 -0.195100 -0.195100
vn 0.998200 -0.042800 -0.042800
vn -0.662000 -0.530000 -0.530000
vn -0.961200 -0.195100 -0.195100
vn -0.998200 -0.042800 -0.042800
vn -0.999800 0.015800 0.015800
vn 0.000000 0.191600 -0.981500
vn 0.000000 -0.370700 -0.928700
vn 0.000000 -0.981500 0.191600
vn 0.000000 -0.928700 -0.370700
vn 0.000000 0.707100 0.707100
vn 0.000000 0.563300 0.826200
vn 0.000000 0.247100 0.969000
vn 0.000000 -0.076000 0.997100
vn 0.000000 -0.364500 0.931200
vn 0.000000 -0.605400 0.795900
vn 0.000000 0.826200 0.563300
vn 0.000000 0.969000 0.247100
vn 0.000000 0.997100 -0.076000
vn 0.000000 0.931200 -0.364500
vn 0.000000 0.795900 -0.605400
vn 0.000000 -0.734400 0.678700
vn -1.000000 0.000000 -0.000000
vn 0.000000 0.719100 0.694900
vn 0.999800 0.015800 -0.015800
vn 0.000000 -0.707100 0.707100
vn 0.000000 -0.694900 -0.719100
vn 0.000000 0.707100 -0.707100
vn 0.000000 0.674200 0.738500
vn 0.000000 -0.738500 -0.674200
vn 0.000000 -0.997700 -0.068500
vn 0.000000 -0.843000 -0.537900
vn 0.000000 -0.739300 -0.673400
vn 0.000000 0.068500 0.997700
vn 0.000000 0.537900 0.843000
vn 0.000000 0.673400 0.739300
vn 0.662000 -0.530000 0.530000
vn 0.961200 -0.195100 0.195100
vn 0.998200 -0.042800 0.042800
vn -0.662000 -0.530000 0.530000
vn -0.961200 -0.195100 0.195100
vn -0.998200 -0.042800 0.042800
vn -0.999800 0.015800 -0.015800
vn 0.000000 -0.819500 -0.573100
vn 0.000000 -0.979700 -0.200500
vn 0.000000 0.573100 0.819500
vn 0.000000 0.200500 0.979700
vn 0.000000 -0.200500 -0.979700
vn 0.000000 -0.573100 -0.819500
vn 0.000000 -0.672800 -0.739800
vn 0.000000 0.979700 0.200500
vn 0.000000 0.819500 0.573100
vn 0.000000 0.739800 0.672800
usemtl Black
s off
f 3//1 1//1 9//1 17//1
f 4//2 3//2 17//2 21//2
f 14//3 22//3 18//3 10//3
f 2//4 4//4 21//4 13//4
f 6//5 5//5 56//5 49//5
f 1//3 3//3 31//3 34//3
f 36//6 32//6 7//6 8//6
f 6//7 49//7 62//7
f 30//8 26//8 5//8 6//8
f 22//9 14//9 16//9 24//9
f 24//10 16//10 15//10 23//10
f 23//11 15//11 13//11 21//11
f 10//12 18//12 20//12 12//12
f 12//13 20//13 19//13 11//13
f 11//14 19//14 17//14 9//14
f 18//15 22//15 24//15 20//15
f 20//16 24//16 23//16 19//16
f 19//17 23//17 21//17 17//17
f 14//18 10//18 12//18 16//18
f 16//19 12//19 11//19 15//19
f 15//20 11//20 9//20 13//20
f 1//21 2//21 13//21 9//21
f 26//22 30//22 29//22 27//22
f 27//23 29//23 28//23 25//23
f 32//24 36//24 35//24 33//24
f 33//25 35//25 34//25 31//25
f 4//3 2//3 25//3 28//3
f 38//26 43//26 50//26 55//26
f 43//27 38//27 42//27 45//27
f 45//28 42//28 41//28 46//28
f 46//29 41//29 40//29 47//29
f 47//30 40//30 39//30 48//30
f 48//31 39//31 37//31 44//31
f 55//32 50//32 54//32 57//32
f 57//33 54//33 53//33 58//33
f 58//34 53//34 52//34 59//34
f 59//35 52//35 51//35 60//35
f 60//36 51//36 49//36 56//36
f 8//37 7//37 44//37 37//37
f 1//38 34//38 61//38
f 34//38 35//38 61//38
f 35//38 36//38 61//38
f 36//38 8//38 61//38
f 8//38 37//38 61//38
f 37//38 39//38 61//38
f 39//38 40//38 61//38
f 40//38 41//38 61//38
f 41//38 42//38 61//38
f 42//38 38//38 61//38
f 38//38 55//38 61//38
f 55//38 57//38 61//38
f 57//38 58//38 61//38
f 58//38 59//38 61//38
f 59//38 60//38 61//38
f 60//38 56//38 61//38
f 56//38 5//38 61//38
f 5//38 26//38 61//38
f 26//38 27//38 61//38
f 27//38 25//38 61//38
f 25//38 2//38 61//38
f 2//38 1//38 61//38
f 49//7 51//7 62//7
f 51//7 52//7 62//7
f 52//7 53//7 62//7
f 53//7 54//7 62//7
f 54//7 50//7 62//7
f 50//7 43//7 62//7
f 43//7 45//7 62//7
f 45//7 46//7 62//7
f 46//7 47//7 62//7
f 47//7 48//7 62//7
f 48//7 44//7 62//7
f 44//7 7//7 62//7
f 7//7 32//7 62//7
f 32//7 33//7 62//7
f 33//7 31//7 62//7
f 31//7 3//7 62//7
f 3//7 4//7 62//7
f 4//7 28//7 62//7
f 28//7 29//7 62//7
f 29//7 30//7 62//7
f 30//7 6//7 62//7
f 65//39 63//39 86//39 94//39
f 66//40 65//40 94//40 98//40
f 91//41 99//41 95//41 87//41
f 64//42 66//42 98//42 90//42
f 63//38 111//38 163//38
f 82//7 81//7 164//7
f 74//38 83//38 165//38
f 131//43 138//43 119//43 114//43
f 79//38 77//38 166//38
f 82//43 83//43 167//43
f 85//43 147//43 154//43 84//43
f 66//7 105//7 168//7
f 77//26 76//26 123//26 126//26
f 83//26 82//26 159//26 142//26
f 63//41 65//41 108//41 111//41
f 113//44 109//44 76//44 77//44
f 76//7 75//7 169//7
f 158//43 85//43 84//43 143//43
f 75//3 79//3 151//3 134//3
f 73//7 72//7 170//7
f 71//38 78//38 171//38
f 107//45 103//45 71//45 72//45
f 81//3 80//3 155//3 146//3
f 78//26 73//26 139//26 130//26
f 72//3 71//3 115//3 118//3
f 135//43 150//43 127//43 122//43
f 99//46 91//46 93//46 101//46
f 101//47 93//47 92//47 100//47
f 100//48 92//48 90//48 98//48
f 87//49 95//49 97//49 89//49
f 89//50 97//50 96//50 88//50
f 88//51 96//51 94//51 86//51
f 95//52 99//52 101//52 97//52
f 97//53 101//53 100//53 96//53
f 96//54 100//54 98//54 94//54
f 91//55 87//55 89//55 93//55
f 93//56 89//56 88//56 92//56
f 92//57 88//57 86//57 90//57
f 63//58 64//58 90//58 86//58
f 103//59 107//59 106//59 104//59
f 104//60 106//60 105//60 102//60
f 109//61 113//61 112//61 110//61
f 110//62 112//62 111//62 108//62
f 66//41 64//41 102//41 105//41
f 114//63 119//63 121//63 116//63
f 116//64 121//64 120//64 117//64
f 117//65 120//65 118//65 115//65
f 122//66 127//66 129//66 124//66
f 124//67 129//67 128//67 125//67
f 125//68 128//68 126//68 123//68
f 138//66 131//66 133//66 140//66
f 140//67 133//67 132//67 141//67
f 141//68 132//68 130//68 139//68
f 150//63 135//63 137//63 152//63
f 152//64 137//64 136//64 153//64
f 153//65 136//65 134//65 151//65
f 146//65 155//65 157//65 148//65
f 148//64 157//64 156//64 149//64
f 149//63 156//63 154//63 147//63
f 158//66 143//66 145//66 160//66
f 160//67 145//67 144//67 161//67
f 161//68 144//68 142//68 159//68
f 68//43 80//43 162//43
f 80//43 81//43 162//43
f 81//43 69//43 162//43
f 69//43 73//43 162//43
f 73//43 78//43 162//43
f 78//43 68//43 162//43
f 111//38 112//38 163//38
f 112//38 113//38 163//38
f 113//38 77//38 163//38
f 77//38 79//38 163//38
f 79//38 67//38 163//38
f 67//38 83//38 163//38
f 83//38 74//38 163//38
f 74//38 80//38 163//38
f 80//38 68//38 163//38
f 68//38 78//38 163//38
f 78//38 71//38 163//38
f 71//38 103//38 163//38
f 103//38 104//38 163//38
f 104//38 102//38 163//38
f 102//38 64//38 163//38
f 64//38 63//38 163//38
f 81//7 146//7 164//7
f 146//7 148//7 164//7
f 148//7 149//7 164//7
f 149//7 147//7 164//7
f 147//7 85//7 164//7
f 85//7 158//7 164//7
f 158//7 160//7 164//7
f 160//7 161//7 164//7
f 161//7 159//7 164//7
f 159//7 82//7 164//7
f 83//38 142//38 165//38
f 142//38 144//38 165//38
f 144//38 145//38 165//38
f 145//38 143//38 165//38
f 143//38 84//38 165//38
f 84//38 154//38 165//38
f 154//38 156//38 165//38
f 156//38 157//38 165//38
f 157//38 155//38 165//38
f 155//38 80//38 165//38
f 80//38 74//38 165//38
f 77//38 126//38 166//38
f 126//38 128//38 166//38
f 128//38 129//38 166//38
f 129//38 127//38 166//38
f 127//38 150//38 166//38
f 150//38 152//38 166//38
f 152//38 153//38 166//38
f 153//38 151//38 166//38
f 151//38 79//38 166//38
f 83//43 67//43 167//43
f 67//43 79//43 167//43
f 79//43 75//43 167//43
f 75//43 70//43 167//43
f 70//43 82//43 167//43
f 105//7 106//7 168//7
f 106//7 107//7 168//7
f 107//7 72//7 168//7
f 72//7 73//7 168//7
f 73//7 69//7 168//7
f 69//7 81//7 168//7
f 81//7 82//7 168//7
f 82//7 70//7 168//7
f 70//7 75//7 168//7
f 75//7 76//7 168//7
f 76//7 109//7 168//7
f 109//7 110//7 168//7
f 110//7 108//7 168//7
f 108//7 65//7 168//7
f 65//7 66//7 168//7
f 75//7 134//7 169//7
f 134//7 136//7 169//7
f 136//7 137//7 169//7
f 137//7 135//7 169//7
f 135//7 122//7 169//7
f 122//7 124//7 169//7
f 124//7 125//7 169//7
f 125//7 123//7 169//7
f 123//7 76//7 169//7
f 72//7 118//7 170//7
f 118//7 120//7 170//7
f 120//7 121//7 170//7
f 121//7 119//7 170//7
f 119//7 138//7 170//7
f 138//7 140//7 170//7
f 140//7 141//7 170//7
f 141//7 139//7 170//7
f 139//7 73//7 170//7
f 78//38 130//38 171//38
f 130//38 132//38 171//38
f 132//38 133//38 171//38
f 133//38 131//38 171//38
f 131//38 114//38 171//38
f 114//38 116//38 171//38
f 116//38 117//38 171//38
f 117//38 115//38 171//38
f 115//38 71//38 171//38
