# Blender v2.74 (sub 0) OBJ File: 'icons.blend'
# www.blender.org
mtllib icon_painting.mtl
o Painting_Cube.002
v -0.308500 0.638664 1.492440
v -0.308500 2.281582 0.234256
v -0.308500 0.638664 -1.362531
v -0.308500 1.593500 -0.642745
v 0.308500 0.638664 1.492440
v 0.308500 2.281582 0.234256
v 0.308500 0.638664 -1.362531
v 0.308500 1.593500 -0.642745
v -0.308500 1.364082 -0.160686
v -0.308500 0.638664 -0.160686
v 0.308500 1.364082 -0.160686
v 0.308500 0.638664 -0.160686
v -0.308500 -0.002784 2.327364
v -0.308500 3.002784 2.327364
v -0.308500 -0.002784 -2.327364
v -0.308500 3.002784 -2.327364
v 0.308500 -0.002784 2.327364
v 0.308500 3.002784 2.327364
v 0.308500 -0.002784 -2.327364
v 0.308500 3.002784 -2.327364
v -0.308500 0.222658 1.978222
v -0.308500 2.777342 1.978222
v -0.308500 2.777342 -1.978222
v -0.308500 0.222658 -1.978222
v 0.308500 2.777342 -1.978222
v 0.308500 0.222658 -1.978222
v 0.308500 2.777342 1.978222
v 0.308500 0.222658 1.978222
v -0.308500 2.178383 -1.607602
v 0.308500 2.178383 -1.607602
v -0.308500 2.016493 -1.564223
v 0.308500 2.016493 -1.564223
v -0.308500 1.897981 -1.445711
v 0.308500 1.897981 -1.445711
v -0.308500 1.854602 -1.283821
v 0.308500 1.854602 -1.283821
v -0.308500 1.897981 -1.121931
v 0.308500 1.897981 -1.121931
v -0.308500 2.016493 -1.003419
v 0.308500 2.016493 -1.003419
v -0.308500 2.178383 -0.960041
v 0.308500 2.178383 -0.960041
v -0.308500 2.340273 -1.003419
v 0.308500 2.340273 -1.003419
v -0.308500 2.458785 -1.121931
v 0.308500 2.458785 -1.121931
v -0.308500 2.502163 -1.283821
v 0.308500 2.502163 -1.283821
v -0.308500 2.458785 -1.445711
v 0.308500 2.458785 -1.445711
v -0.308500 2.340273 -1.564223
v 0.308500 2.340273 -1.564223
v 0.308500 2.178383 -1.283821
v -0.308500 2.178383 -1.283821
vn 0.000000 0.000000 -1.000000
vn 0.000000 0.000000 1.000000
vn 0.000000 -1.000000 0.000000
vn 0.000000 1.000000 0.000000
vn -1.000000 0.000000 0.000000
vn 1.000000 0.000000 0.000000
vn -0.653200 0.000000 -0.757100
vn 0.653200 0.000000 -0.757100
vn 0.653200 -0.378600 -0.655700
vn -0.653200 -0.378600 -0.655700
vn 0.653200 -0.655700 -0.378600
vn -0.653200 -0.655700 -0.378600
vn 0.653200 -0.757100 0.000000
vn -0.653200 -0.757100 0.000000
vn 0.653200 -0.655700 0.378600
vn -0.653200 -0.655700 0.378600
vn 0.653200 -0.378600 0.655700
vn -0.653200 -0.378600 0.655700
vn 0.653200 0.000000 0.757100
vn -0.653200 0.000000 0.757100
vn 0.653200 0.378600 0.655700
vn -0.653200 0.378600 0.655700
vn 0.653200 0.655700 0.378600
vn -0.653200 0.655700 0.378600
vn 0.653200 0.757100 0.000000
vn -0.653200 0.757100 0.000000
vn 0.653200 0.655700 -0.378600
vn -0.653200 0.655700 -0.378600
vn -0.653200 0.378600 -0.655700
vn 0.653200 0.378600 -0.655700
vn 0.000000 0.602000 -0.798500
vn 0.000000 0.608000 0.793900
vn 0.000000 0.903000 0.429700
vn 0.000000 0.395400 -0.918500
usemtl Brownish
s off
f 16//1 20//1 19//1 15//1
f 18//2 14//2 13//2 17//2
f 13//3 15//3 19//3 17//3
f 18//4 20//4 16//4 14//4
f 22//5 21//5 13//5 14//5
f 23//5 22//5 14//5 16//5
f 24//5 23//5 16//5 15//5
f 21//5 24//5 15//5 13//5
f 25//6 26//6 19//6 20//6
f 27//6 25//6 20//6 18//6
f 28//6 27//6 18//6 17//6
f 26//6 28//6 17//6 19//6
f 24//4 21//4 28//4 26//4
f 24//2 26//2 25//2 23//2
f 22//3 23//3 25//3 27//3
f 21//1 22//1 27//1 28//1
usemtl SunYellow
f 29//5 31//5 54//5
f 32//6 30//6 53//6
f 30//6 52//6 53//6
f 52//6 50//6 53//6
f 50//6 48//6 53//6
f 48//6 46//6 53//6
f 46//6 44//6 53//6
f 44//6 42//6 53//6
f 42//6 40//6 53//6
f 40//6 38//6 53//6
f 38//6 36//6 53//6
f 36//6 34//6 53//6
f 34//6 32//6 53//6
f 31//5 33//5 54//5
f 33//5 35//5 54//5
f 35//5 37//5 54//5
f 37//5 39//5 54//5
f 39//5 41//5 54//5
f 41//5 43//5 54//5
f 43//5 45//5 54//5
f 45//5 47//5 54//5
f 47//5 49//5 54//5
f 49//5 51//5 54//5
f 51//5 29//5 54//5
s 1
f 29//7 30//8 32//9 31//10
f 31//10 32//9 34//11 33//12
f 33//12 34//11 36//13 35//14
f 35//14 36//13 38//15 37//16
f 37//16 38//15 40//17 39//18
f 39//18 40//17 42//19 41//20
f 41//20 42//19 44//21 43//22
f 43//22 44//21 46//23 45//24
f 45//24 46//23 48//25 47//26
f 47//26 48//25 50//27 49//28
f 51//29 52//30 30//8 29//7
f 49//28 50//27 52//30 51//29
usemtl MountainBrown
s off
f 9//5 4//5 3//5 10//5
f 4//31 8//31 7//31 3//31
f 11//6 6//6 5//6 12//6
f 6//32 2//32 1//32 5//32
f 10//3 3//3 7//3 12//3
f 11//33 8//33 4//33 9//33
f 6//34 11//34 9//34 2//34
f 1//3 10//3 12//3 5//3
f 8//6 11//6 12//6 7//6
f 2//5 9//5 10//5 1//5
