# Blender v2.74 (sub 0) OBJ File: 'icons.blend'
# www.blender.org
mtllib icon_letter.mtl
o Cube_Cube.007
v 0.308500 1.206780 0.000000
v -0.308500 1.206780 0.000000
v -0.308500 1.944762 -1.491721
v -0.308500 1.900180 -1.523933
v -0.308500 1.938789 -1.543690
v -0.308500 1.922471 -1.555480
v 0.308500 1.900180 -1.523933
v 0.308500 1.944762 -1.491721
v 0.308500 1.922471 -1.555480
v 0.308500 1.938789 -1.543690
v -0.308500 1.909969 1.545446
v -0.308500 1.944762 1.520307
v -0.308500 1.927366 1.570067
v -0.308500 1.940100 1.560865
v 0.308500 1.944762 1.520307
v 0.308500 1.909969 1.545446
v 0.308500 1.940100 1.560865
v 0.308500 1.927366 1.570067
v -0.308500 0.019194 1.621913
v -0.308500 1.706051 1.621913
v -0.308500 0.019194 -1.621913
v -0.308500 1.706051 -1.621913
v 0.308500 0.019194 1.621913
v 0.308500 1.706051 1.621913
v 0.308500 0.019194 -1.621913
v 0.308500 1.706051 -1.621913
v -0.308500 0.956293 0.000000
v -0.308500 0.019194 0.000000
v 0.308500 0.956293 0.000000
v 0.308500 0.019194 0.000000
v -0.308500 1.745133 0.006641
v 0.308500 1.745133 0.006641
vn 1.000000 0.000000 0.000000
vn 0.000000 -0.910200 0.414200
vn 0.000000 0.993500 -0.114200
vn 0.000000 0.585700 -0.810600
vn 0.000000 -0.816700 -0.577100
vn 0.000000 -0.910200 -0.414200
vn 0.000000 0.993500 0.114200
vn 0.000000 0.585700 0.810600
vn 0.000000 -0.816700 0.577100
vn 0.000000 1.000000 0.000000
vn -1.000000 0.000000 0.000000
vn 0.000000 0.000000 -1.000000
vn 0.000000 0.000000 1.000000
vn 0.000000 -1.000000 0.000000
vn 0.000000 0.907700 0.419600
vn 0.000000 0.907700 -0.419600
usemtl White
s off
f 7//1 9//1 32//1
f 16//2 11//2 2//2 1//2
f 3//3 8//3 10//3 5//3
f 5//4 10//4 9//4 6//4
f 6//5 9//5 7//5 4//5
f 4//6 7//6 1//6 2//6
f 15//7 12//7 14//7 17//7
f 17//8 14//8 13//8 18//8
f 18//9 13//9 11//9 16//9
f 15//10 8//10 3//10 12//10
f 27//11 22//11 21//11 28//11
f 22//12 26//12 25//12 21//12
f 29//1 24//1 23//1 30//1
f 24//13 20//13 19//13 23//13
f 28//14 21//14 25//14 30//14
f 29//15 26//15 22//15 27//15
f 24//16 29//16 27//16 20//16
f 19//14 28//14 30//14 23//14
f 26//1 29//1 30//1 25//1
f 20//11 27//11 28//11 19//11
f 3//11 5//11 31//11
f 5//11 6//11 31//11
f 6//11 4//11 31//11
f 4//11 2//11 31//11
f 2//11 11//11 31//11
f 11//11 13//11 31//11
f 13//11 14//11 31//11
f 14//11 12//11 31//11
f 12//11 3//11 31//11
f 9//1 10//1 32//1
f 10//1 8//1 32//1
f 8//1 15//1 32//1
f 15//1 17//1 32//1
f 17//1 18//1 32//1
f 18//1 16//1 32//1
f 16//1 1//1 32//1
f 1//1 7//1 32//1
