# Blender v2.74 (sub 0) OBJ File: 'icons.blend'
# www.blender.org
mtllib icon_library.mtl
o Cube.007_Cube.014
v -0.308500 0.024574 0.033244
v -0.308500 0.198876 0.033244
v 0.308500 0.024574 0.033244
v 0.308500 0.198876 0.033244
v -0.308500 0.198876 1.676168
v -0.308500 0.024574 1.676168
v 0.308500 0.198876 1.676168
v 0.308500 0.024574 1.676168
v -0.308500 0.024574 -1.676168
v -0.308500 0.198876 -1.676168
v 0.308500 0.024574 -1.676168
v 0.308500 0.198876 -1.676168
v -0.308500 0.198876 -0.033245
v -0.308500 0.024574 -0.033245
v 0.308500 0.198876 -0.033245
v 0.308500 0.024574 -0.033245
v 0.308500 0.024574 -0.854707
v -0.308500 0.024574 -0.854707
v 0.308500 0.024574 0.854706
v -0.308500 0.024574 0.854706
v -0.308500 0.245325 -0.448358
v -0.308500 0.245325 -1.261055
v -0.308500 0.024608 -0.854707
v -0.308500 0.259264 -0.634792
v -0.308500 0.264159 -0.854707
v -0.308500 0.259264 -1.074621
v 0.308500 0.245325 -1.261055
v 0.308500 0.245325 -0.448358
v 0.308500 0.024608 -0.854707
v 0.308500 0.259264 -1.074621
v 0.308500 0.264159 -0.854707
v 0.308500 0.259264 -0.634792
v -0.308500 0.245325 1.261055
v -0.308500 0.245325 0.448357
v -0.308500 0.024608 0.854706
v -0.308500 0.259264 1.074621
v -0.308500 0.264159 0.854706
v -0.308500 0.259264 0.634792
v 0.308500 0.245325 0.448357
v 0.308500 0.245325 1.261055
v 0.308500 0.024608 0.854706
v 0.308500 0.259264 0.634792
v 0.308500 0.264159 0.854706
v 0.308500 0.259264 1.074621
v -0.308500 0.198876 -1.676168
v -0.308500 0.198876 -1.501866
v 0.308500 0.198876 -1.676168
v 0.308500 0.198876 -1.501866
v -0.308500 0.198877 1.501866
v -0.308500 0.198877 1.676168
v 0.308500 0.198877 1.501866
v 0.308500 0.198877 1.676168
v -0.308500 2.081608 -1.601176
v -0.308500 2.035051 -1.676168
v -0.308500 2.067972 -1.654203
v -0.308500 2.035051 -1.501866
v -0.308500 2.081608 -1.576858
v -0.308500 2.067972 -1.523831
v 0.308500 2.035051 -1.676168
v 0.308500 2.081608 -1.601176
v 0.308500 2.067972 -1.654203
v 0.308500 2.081608 -1.576858
v 0.308500 2.035051 -1.501866
v 0.308500 2.067972 -1.523831
v -0.308500 2.081608 1.576858
v -0.308500 2.035051 1.501866
v -0.308500 2.067972 1.523831
v -0.308500 2.035051 1.676168
v -0.308500 2.081608 1.601176
v -0.308500 2.067972 1.654204
v 0.308500 2.035051 1.501866
v 0.308500 2.081608 1.576858
v 0.308500 2.067972 1.523831
v 0.308500 2.081608 1.601176
v 0.308500 2.035051 1.676168
v 0.308500 2.067972 1.654203
v -0.308500 0.527626 -1.234280
v -0.308500 2.285625 -1.234280
v 0.308500 0.527626 -1.234280
v 0.308500 2.285625 -1.234280
v -0.308500 2.285625 -0.033245
v -0.308500 0.527626 -0.033245
v 0.308500 2.285625 -0.033245
v 0.308500 0.527626 -0.033245
v -0.308500 2.412498 -0.436634
v -0.308500 2.412498 -0.830891
v -0.308500 2.317468 -0.633762
v -0.308500 2.435191 -0.561608
v -0.308500 2.435191 -0.705916
v -0.308500 0.654498 -0.830891
v -0.308500 0.654498 -0.436634
v -0.308500 0.873528 -0.633762
v -0.308500 0.677192 -0.705916
v -0.308500 0.677192 -0.561608
v 0.308500 2.412498 -0.830891
v 0.308500 2.412498 -0.436634
v 0.308500 2.317468 -0.633762
v 0.308500 2.435191 -0.705916
v 0.308500 2.435191 -0.561608
v 0.308500 0.654498 -0.436634
v 0.308500 0.654498 -0.830891
v 0.308500 0.873528 -0.633762
v 0.308500 0.677192 -0.561608
v 0.308500 0.677192 -0.705916
v -0.308500 0.527626 1.234280
v -0.308500 2.285625 1.234280
v 0.308500 0.527626 1.234280
v 0.308500 2.285625 1.234280
v -0.308500 2.285625 0.033244
v -0.308500 0.527626 0.033244
v 0.308500 2.285625 0.033244
v 0.308500 0.527626 0.033244
v -0.308500 2.412498 0.830891
v -0.308500 2.412498 0.436634
v -0.308500 2.317468 0.633762
v -0.308500 2.435191 0.705916
v -0.308500 2.435191 0.561608
v -0.308500 0.654498 0.436634
v -0.308500 0.654498 0.830891
v -0.308500 0.873528 0.633762
v -0.308500 0.677192 0.561608
v -0.308500 0.677192 0.705916
v 0.308500 2.412498 0.436634
v 0.308500 2.412498 0.830891
v 0.308500 2.317468 0.633762
v 0.308500 2.435191 0.561608
v 0.308500 2.435191 0.705916
v 0.308500 0.654498 0.830891
v 0.308500 0.654498 0.436634
v 0.308500 0.873528 0.633762
v 0.308500 0.677192 0.705916
v 0.308500 0.677192 0.561608
v -0.308500 0.103867 1.297670
v 0.308500 0.103867 0.411743
v -0.308500 0.103867 -0.411743
v 0.308500 0.103867 -1.297670
v -0.308500 0.103867 0.411743
v 0.308500 0.103867 -0.411743
v 0.308500 0.103867 1.297670
v -0.308500 0.103867 -1.297670
v 0.308500 1.127381 -1.589017
v -0.308500 1.127381 -1.589017
v 0.308500 1.127381 1.589017
v -0.308500 1.127381 1.589017
v -0.308500 1.482644 -0.317261
v 0.308500 1.482643 -0.317261
v 0.308500 1.482644 -0.950264
v -0.308500 1.482643 -0.950264
v 0.308500 1.482644 0.317261
v -0.308500 1.482643 0.317261
v -0.308500 1.482644 0.950264
v 0.308500 1.482643 0.950264
vn 0.000000 -1.000000 0.000000
vn 1.000000 -0.000000 0.000000
vn -1.000000 0.000000 0.000000
vn 0.000000 0.000000 -1.000000
vn 0.000000 0.000000 1.000000
vn 0.000000 -0.953900 -0.300000
vn 0.000000 -0.953900 0.300000
vn 0.000000 -0.983900 0.178700
vn 0.000000 -0.983900 -0.178700
vn 0.583400 0.541400 0.605400
vn 0.703000 0.708100 0.066000
vn -0.703000 0.708100 0.066000
vn -0.583400 0.541400 0.605400
vn 0.703000 0.708100 -0.066000
vn 0.583400 0.541400 -0.605400
vn -0.583400 0.541400 -0.605400
vn -0.703000 0.708100 -0.066000
vn -0.701300 0.712100 -0.034500
vn 0.701300 0.712100 -0.034500
vn -0.702100 0.712000 0.000000
vn 0.702100 0.712000 0.000000
vn -0.701300 0.712100 0.034500
vn 0.701300 0.712100 0.034500
vn -0.679900 0.727500 0.092000
vn 0.679900 0.727500 0.092000
vn 0.679900 0.727500 -0.092000
vn -0.679900 0.727500 -0.092000
vn -0.647300 0.221000 0.729500
vn 0.647300 0.221000 0.729500
vn 0.634800 0.630100 0.447100
vn -0.634800 0.630100 0.447100
vn 0.647300 0.221000 -0.729500
vn -0.647300 0.221000 -0.729500
vn -0.634800 0.630100 -0.447100
vn 0.634800 0.630100 -0.447100
vn 0.766600 0.612500 0.192600
vn 0.693300 0.699600 0.172800
vn -0.693300 0.699600 0.172800
vn -0.766600 0.612500 0.192600
vn 0.693300 0.699600 -0.172800
vn 0.595100 0.475400 -0.647900
vn -0.595100 0.475400 -0.647900
vn -0.693300 0.699600 -0.172800
vn -0.687500 0.723300 -0.065100
vn 0.687500 0.723300 -0.065100
vn -0.687500 0.723300 0.065100
vn 0.687500 0.723300 0.065100
vn 0.766600 0.612500 -0.192600
vn -0.766600 0.612500 -0.192600
vn 0.595100 0.475400 0.647900
vn -0.595100 0.475400 0.647900
usemtl LigthBrown
s off
f 20//1 1//1 3//1 19//1
f 4//2 39//2 134//2
f 13//3 21//3 135//3
f 1//4 2//4 4//4 3//4
f 7//5 5//5 6//5 8//5
f 18//1 9//1 11//1 17//1
f 12//2 27//2 136//2
f 35//3 34//3 137//3
f 9//4 10//4 12//4 11//4
f 15//5 13//5 14//5 16//5
f 29//2 28//2 138//2
f 14//1 18//1 17//1 16//1
f 41//2 40//2 139//2
f 6//1 20//1 19//1 8//1
f 23//3 22//3 140//3
f 21//3 24//3 23//3
f 24//3 25//3 23//3
f 25//3 26//3 23//3
f 26//3 22//3 23//3
f 27//2 30//2 29//2
f 30//2 31//2 29//2
f 31//2 32//2 29//2
f 32//2 28//2 29//2
f 33//3 36//3 35//3
f 36//3 37//3 35//3
f 37//3 38//3 35//3
f 38//3 34//3 35//3
f 39//2 42//2 41//2
f 42//2 43//2 41//2
f 43//2 44//2 41//2
f 44//2 40//2 41//2
f 62//2 64//2 141//2
f 45//4 54//4 59//4 47//4
f 46//3 56//3 142//3
f 74//2 76//2 143//2
f 48//1 46//1 45//1 47//1
f 49//4 66//4 71//4 51//4
f 50//3 68//3 144//3
f 81//3 85//3 145//3
f 52//1 50//1 49//1 51//1
f 48//5 63//5 56//5 46//5
f 52//5 75//5 68//5 50//5
f 78//4 80//4 79//4 77//4
f 82//6 91//6 100//6 84//6
f 97//2 96//2 146//2
f 80//2 95//2 147//2
f 87//3 86//3 148//3
f 111//2 123//2 149//2
f 90//7 77//7 79//7 101//7
f 85//3 88//3 87//3
f 88//3 89//3 87//3
f 89//3 86//3 87//3
f 90//3 93//3 92//3
f 93//3 94//3 92//3
f 94//3 91//3 92//3
f 95//2 98//2 97//2
f 98//2 99//2 97//2
f 99//2 96//2 97//2
f 100//2 103//2 102//2
f 103//2 104//2 102//2
f 104//2 101//2 102//2
f 90//8 101//8 104//8 93//8
f 93//1 104//1 103//1 94//1
f 94//9 103//9 100//9 91//9
f 115//3 114//3 150//3
f 108//5 106//5 105//5 107//5
f 106//3 113//3 151//3
f 125//2 124//2 152//2
f 105//6 119//6 128//6 107//6
f 118//7 110//7 112//7 129//7
f 113//3 116//3 115//3
f 116//3 117//3 115//3
f 117//3 114//3 115//3
f 118//3 121//3 120//3
f 121//3 122//3 120//3
f 122//3 119//3 120//3
f 123//2 126//2 125//2
f 126//2 127//2 125//2
f 127//2 124//2 125//2
f 128//2 131//2 130//2
f 131//2 132//2 130//2
f 132//2 129//2 130//2
f 118//8 129//8 132//8 121//8
f 121//1 132//1 131//1 122//1
f 122//9 131//9 128//9 119//9
f 5//3 33//3 133//3
f 33//3 35//3 133//3
f 35//3 20//3 133//3
f 20//3 6//3 133//3
f 6//3 5//3 133//3
f 39//2 41//2 134//2
f 41//2 19//2 134//2
f 19//2 3//2 134//2
f 3//2 4//2 134//2
f 21//3 23//3 135//3
f 23//3 18//3 135//3
f 18//3 14//3 135//3
f 14//3 13//3 135//3
f 27//2 29//2 136//2
f 29//2 17//2 136//2
f 17//2 11//2 136//2
f 11//2 12//2 136//2
f 34//3 2//3 137//3
f 2//3 1//3 137//3
f 1//3 20//3 137//3
f 20//3 35//3 137//3
f 28//2 15//2 138//2
f 15//2 16//2 138//2
f 16//2 17//2 138//2
f 17//2 29//2 138//2
f 40//2 7//2 139//2
f 7//2 8//2 139//2
f 8//2 19//2 139//2
f 19//2 41//2 139//2
f 22//3 10//3 140//3
f 10//3 9//3 140//3
f 9//3 18//3 140//3
f 18//3 23//3 140//3
f 64//2 63//2 141//2
f 63//2 48//2 141//2
f 48//2 47//2 141//2
f 47//2 59//2 141//2
f 59//2 61//2 141//2
f 61//2 60//2 141//2
f 60//2 62//2 141//2
f 56//3 58//3 142//3
f 58//3 57//3 142//3
f 57//3 53//3 142//3
f 53//3 55//3 142//3
f 55//3 54//3 142//3
f 54//3 45//3 142//3
f 45//3 46//3 142//3
f 76//2 75//2 143//2
f 75//2 52//2 143//2
f 52//2 51//2 143//2
f 51//2 71//2 143//2
f 71//2 73//2 143//2
f 73//2 72//2 143//2
f 72//2 74//2 143//2
f 68//3 70//3 144//3
f 70//3 69//3 144//3
f 69//3 65//3 144//3
f 65//3 67//3 144//3
f 67//3 66//3 144//3
f 66//3 49//3 144//3
f 49//3 50//3 144//3
f 85//3 87//3 145//3
f 87//3 92//3 145//3
f 92//3 91//3 145//3
f 91//3 82//3 145//3
f 82//3 81//3 145//3
f 96//2 83//2 146//2
f 83//2 84//2 146//2
f 84//2 100//2 146//2
f 100//2 102//2 146//2
f 102//2 97//2 146//2
f 95//2 97//2 147//2
f 97//2 102//2 147//2
f 102//2 101//2 147//2
f 101//2 79//2 147//2
f 79//2 80//2 147//2
f 86//3 78//3 148//3
f 78//3 77//3 148//3
f 77//3 90//3 148//3
f 90//3 92//3 148//3
f 92//3 87//3 148//3
f 123//2 125//2 149//2
f 125//2 130//2 149//2
f 130//2 129//2 149//2
f 129//2 112//2 149//2
f 112//2 111//2 149//2
f 114//3 109//3 150//3
f 109//3 110//3 150//3
f 110//3 118//3 150//3
f 118//3 120//3 150//3
f 120//3 115//3 150//3
f 113//3 115//3 151//3
f 115//3 120//3 151//3
f 120//3 119//3 151//3
f 119//3 105//3 151//3
f 105//3 106//3 151//3
f 124//2 108//2 152//2
f 108//2 107//2 152//2
f 107//2 128//2 152//2
f 128//2 130//2 152//2
f 130//2 125//2 152//2
s 1
f 7//10 40//11 33//12 5//13
f 15//10 28//11 21//12 13//13
f 27//14 12//15 10//16 22//17
f 39//14 4//15 2//16 34//17
f 27//14 22//17 26//18 30//19
f 30//19 26//18 25//20 31//21
f 31//21 25//20 24//22 32//23
f 32//23 24//22 21//12 28//11
f 39//14 34//17 38//18 42//19
f 42//19 38//18 37//20 43//21
f 43//21 37//20 36//22 44//23
f 44//23 36//22 33//12 40//11
f 69//24 74//25 72//26 65//27
f 56//28 63//29 64//30 58//31
f 58//31 64//30 62//25 57//24
f 59//32 54//33 55//34 61//35
f 61//35 55//34 53//27 60//26
f 68//28 75//29 76//30 70//31
f 70//31 76//30 74//25 69//24
f 71//32 66//33 67//34 73//35
f 73//35 67//34 65//27 72//26
f 57//24 62//25 60//26 53//27
f 83//36 96//37 85//38 81//39
f 95//40 80//41 78//42 86//43
f 95//40 86//43 89//44 98//45
f 98//45 89//44 88//46 99//47
f 99//47 88//46 85//38 96//37
f 123//40 111//48 109//49 114//43
f 123//40 114//43 117//44 126//45
f 126//45 117//44 116//46 127//47
f 127//47 116//46 113//38 124//37
f 108//50 124//37 113//38 106//51
