# Blender v2.74 (sub 0) OBJ File: 'icons.blend'
# www.blender.org
mtllib icon_post_office.mtl
o Cube.003_Cube.006
v 0.308500 4.671299 -0.011883
v -0.308500 4.671299 -0.011883
v -0.308500 5.109074 -0.896778
v -0.308500 5.082627 -0.915886
v -0.308500 5.105531 -0.927607
v -0.308500 5.095850 -0.934601
v 0.308500 5.082627 -0.915886
v 0.308500 5.109074 -0.896778
v 0.308500 5.095850 -0.934601
v 0.308500 5.105531 -0.927607
v -0.308500 5.088434 0.904883
v -0.308500 5.109074 0.889970
v -0.308500 5.098754 0.919488
v -0.308500 5.106308 0.914030
v 0.308500 5.109074 0.889970
v 0.308500 5.088434 0.904883
v 0.308500 5.106308 0.914030
v 0.308500 5.098754 0.919488
v -0.308500 3.966818 0.950243
v -0.308500 4.967469 0.950243
v -0.308500 3.966818 -0.974009
v -0.308500 4.967469 -0.974009
v 0.308500 3.966818 0.950243
v 0.308500 4.967469 0.950243
v 0.308500 3.966818 -0.974009
v 0.308500 4.967469 -0.974009
v -0.308500 4.522709 -0.011883
v -0.308500 3.966818 -0.011883
v 0.308500 4.522709 -0.011883
v 0.308500 3.966818 -0.011883
v -0.308500 4.990653 -0.007943
v 0.308500 4.990653 -0.007943
v -0.308500 2.641396 1.573505
v -0.308500 2.641396 -1.621872
v 0.308500 2.641396 1.573505
v 0.308500 2.641396 -1.621872
v -0.308500 3.518271 -0.024183
v 0.308500 3.518271 -0.024183
v 0.308500 2.641396 -0.024183
v -0.308500 2.641396 -0.024183
v 0.308500 0.016720 -1.382219
v -0.308500 0.016720 -1.382219
v 0.308500 2.641396 -1.382219
v -0.308500 2.641396 -1.382219
v -0.308500 0.016720 1.333852
v 0.308500 0.016720 1.333852
v 0.308500 2.641396 1.333852
v -0.308500 2.641396 1.333852
v -0.308500 0.016720 -0.491264
v 0.308500 0.016720 0.442897
v 0.308500 1.167059 -0.024183
v -0.308500 1.167059 -0.024183
v 0.308500 2.641396 -0.491264
v 0.308500 2.641396 0.442897
v -0.308500 2.641396 -0.491264
v -0.308500 2.641396 0.442897
v 0.308500 0.016720 -0.491264
v 0.308500 1.167059 -1.382219
v -0.308500 2.916819 -0.660012
v -0.308500 1.167059 -1.382219
v -0.308500 0.016720 0.442897
v -0.308500 1.167059 1.333852
v 0.308500 2.916819 0.611646
v 0.308500 1.167059 1.333852
v -0.308500 2.916819 0.611646
v -0.308500 1.167059 0.442897
v 0.308500 1.167059 -0.491264
v 0.308500 2.916819 -0.660012
v 0.308500 1.167059 0.442897
v -0.308500 1.167059 -0.491264
vn 0.000000 0.876600 -0.481100
vn 0.000000 0.876600 0.481100
vn -1.000000 0.000000 0.000000
vn 1.000000 0.000000 0.000000
vn 0.000000 -1.000000 0.000000
vn 0.000000 -0.910200 0.414200
vn 0.000000 0.993500 -0.114200
vn 0.000000 0.585600 -0.810600
vn 0.000000 -0.816700 -0.577100
vn 0.000000 -0.910200 -0.414200
vn 0.000000 0.993500 0.114200
vn 0.000000 0.585600 0.810600
vn 0.000000 -0.816700 0.577100
vn 0.000000 1.000000 0.000000
vn 0.000000 0.000000 -1.000000
vn 0.000000 0.000000 1.000000
vn 0.000000 0.907700 0.419600
vn 0.000000 0.907700 -0.419600
usemtl MountainBrown
s off
f 38//1 36//1 34//1 37//1
f 35//2 38//2 37//2 33//2
f 33//3 37//3 65//3
f 38//4 35//4 63//4
f 37//3 34//3 59//3
f 34//5 36//5 43//5 44//5
f 33//5 48//5 47//5 35//5
f 39//4 53//4 68//4
f 36//4 38//4 68//4
f 38//4 39//4 68//4
f 53//4 43//4 68//4
f 43//4 36//4 68//4
f 37//3 40//3 65//3
f 40//3 56//3 65//3
f 56//3 48//3 65//3
f 48//3 33//3 65//3
f 35//4 47//4 63//4
f 47//4 54//4 63//4
f 54//4 39//4 63//4
f 39//4 38//4 63//4
f 34//3 44//3 59//3
f 44//3 55//3 59//3
f 55//3 40//3 59//3
f 40//3 37//3 59//3
usemtl LigthBrown
f 45//5 61//5 50//5 46//5
f 67//5 69//5 66//5 70//5
f 49//5 42//5 41//5 57//5
usemtl White
f 7//4 9//4 32//4
f 16//6 11//6 2//6 1//6
f 3//7 8//7 10//7 5//7
f 5//8 10//8 9//8 6//8
f 6//9 9//9 7//9 4//9
f 4//10 7//10 1//10 2//10
f 15//11 12//11 14//11 17//11
f 17//12 14//12 13//12 18//12
f 18//13 13//13 11//13 16//13
f 15//14 8//14 3//14 12//14
f 27//3 22//3 21//3 28//3
f 22//15 26//15 25//15 21//15
f 29//4 24//4 23//4 30//4
f 24//16 20//16 19//16 23//16
f 28//5 21//5 25//5 30//5
f 29//17 26//17 22//17 27//17
f 24//18 29//18 27//18 20//18
f 19//5 28//5 30//5 23//5
f 26//4 29//4 30//4 25//4
f 20//3 27//3 28//3 19//3
f 3//3 5//3 31//3
f 5//3 6//3 31//3
f 6//3 4//3 31//3
f 4//3 2//3 31//3
f 2//3 11//3 31//3
f 11//3 13//3 31//3
f 13//3 14//3 31//3
f 14//3 12//3 31//3
f 12//3 3//3 31//3
f 9//4 10//4 32//4
f 10//4 8//4 32//4
f 8//4 15//4 32//4
f 15//4 17//4 32//4
f 17//4 18//4 32//4
f 18//4 16//4 32//4
f 16//4 1//4 32//4
f 1//4 7//4 32//4
usemtl Red
f 67//4 53//4 39//4 51//4
f 66//3 56//3 40//3 52//3
f 60//15 58//15 41//15 42//15
f 64//16 62//16 45//16 46//16
f 47//16 48//16 62//16 64//16
f 43//15 58//15 60//15 44//15
f 57//16 67//16 70//16 49//16
f 45//3 62//3 66//3 61//3
f 62//3 48//3 56//3 66//3
f 41//4 58//4 67//4 57//4
f 58//4 43//4 53//4 67//4
f 50//15 61//15 66//15 69//15
f 54//4 69//4 51//4 39//4
f 47//4 64//4 69//4 54//4
f 64//4 46//4 50//4 69//4
f 55//3 70//3 52//3 40//3
f 44//3 60//3 70//3 55//3
f 60//3 42//3 49//3 70//3
