# Blender v2.74 (sub 0) OBJ File: 'icons.blend'
# www.blender.org
mtllib icon_swimming.mtl
o Swimming_Cube.001
v -0.308453 1.420517 1.734551
v -0.308453 2.327336 0.368681
v -0.308453 1.420517 -0.921061
v -0.308453 2.749057 0.312461
v 0.308453 1.420517 1.734551
v 0.308453 2.327336 0.368681
v 0.308453 1.420517 -0.921061
v 0.308453 2.749057 0.312461
v -0.308453 1.221406 -0.484194
v -0.308453 1.498275 0.429706
v -0.308453 1.260988 1.282533
v 0.308453 1.260988 1.282533
v 0.308453 1.498275 0.429706
v 0.308453 1.221406 -0.484194
v -0.308453 2.749057 0.312461
v 0.308453 2.749057 0.312461
v 0.308453 2.327336 0.368681
v -0.308453 2.327336 0.368681
v -0.308453 2.827099 0.380436
v 0.308453 2.827099 0.380436
v 0.308453 2.946208 0.735987
v 0.308453 2.779119 0.790949
v 0.308453 2.887650 0.569797
v 0.308453 2.908762 0.780537
v 0.308453 2.863860 0.806625
v 0.308453 2.818335 0.810282
v -0.308453 2.779119 0.790949
v -0.308453 2.946208 0.735987
v -0.308453 2.887650 0.569797
v -0.308453 2.818335 0.810282
v -0.308453 2.863860 0.806625
v -0.308453 2.908762 0.780537
v -0.212697 3.432648 -0.398761
v -0.308453 3.248972 -0.308282
v -0.249341 3.391659 -0.411970
v -0.280407 3.342360 -0.399414
v -0.301164 3.292255 -0.363003
v 0.308453 3.248972 -0.308282
v 0.212697 3.432648 -0.398761
v 0.301164 3.292255 -0.363003
v 0.280407 3.342360 -0.399414
v 0.249341 3.391659 -0.411970
v 0.212697 3.497708 -0.350346
v 0.308453 3.488733 -0.129867
v 0.249341 3.524032 -0.313466
v 0.280407 3.531570 -0.258615
v 0.301164 3.519175 -0.194144
v -0.308453 3.488733 -0.129867
v -0.212697 3.497708 -0.350346
v -0.301164 3.519175 -0.194144
v -0.280407 3.531570 -0.258615
v -0.249341 3.524032 -0.313466
v -0.308500 2.380008 -0.918175
v 0.308500 2.380008 -0.918175
v -0.308500 2.380008 -1.260061
v 0.308500 2.380008 -1.260061
v -0.308500 2.209064 -1.214257
v 0.308500 2.209064 -1.214257
v -0.308500 2.083925 -1.089118
v 0.308500 2.083925 -1.089118
v -0.308500 2.038121 -0.918175
v 0.308500 2.038121 -0.918175
v -0.308500 2.083925 -0.747231
v 0.308500 2.083925 -0.747231
v -0.308500 2.209064 -0.622092
v 0.308500 2.209064 -0.622092
v -0.308500 2.380008 -0.576288
v 0.308500 2.380008 -0.576288
v -0.308500 2.550951 -0.622092
v 0.308500 2.550951 -0.622092
v -0.308500 2.676090 -0.747231
v 0.308500 2.676090 -0.747231
v -0.308500 2.721894 -0.918174
v 0.308500 2.721894 -0.918174
v -0.308500 2.676090 -1.089118
v 0.308500 2.676090 -1.089118
v -0.308500 2.550951 -1.214257
v 0.308500 2.550951 -1.214257
v -0.308453 0.132879 3.050672
v -0.308453 0.713536 3.050672
v -0.308453 0.433599 2.358084
v -0.308453 1.014255 2.358084
v 0.308453 0.132879 3.050672
v 0.308453 0.713536 3.050672
v 0.308453 0.433599 2.358084
v 0.308453 1.014255 2.358084
v -0.308453 0.713536 1.455926
v -0.308453 0.132879 1.455926
v 0.308453 0.713536 1.455926
v 0.308453 0.132879 1.455926
v -0.308453 1.049222 0.420891
v -0.308453 0.468566 0.420891
v 0.308453 1.049222 0.420891
v 0.308453 0.468566 0.420891
v -0.308453 0.650594 -0.530221
v -0.308453 0.069938 -0.530221
v 0.308453 0.650594 -0.530221
v 0.308453 0.069938 -0.530221
v -0.308453 1.091183 -1.544276
v -0.308453 0.510527 -1.544276
v 0.308453 1.091183 -1.544276
v 0.308453 0.510527 -1.544276
v -0.308453 0.727522 -2.348525
v -0.308453 0.146866 -2.348525
v 0.308453 0.727522 -2.348525
v 0.308453 0.146866 -2.348525
v 0.308453 1.756420 0.364656
v -0.308453 1.756420 0.364656
v 0.308453 2.645782 0.503217
v 0.308453 3.127898 0.192875
v -0.308453 3.127899 0.192875
v -0.308453 2.645782 0.503218
vn -1.000000 0.000000 0.000000
vn 0.000000 -0.948700 0.316200
vn 1.000000 0.000000 0.000000
vn 0.000000 0.000000 1.000000
vn 0.000000 -0.917300 -0.398300
vn 0.000000 0.917300 0.398300
vn 0.000000 -0.951200 -0.308500
vn 0.000000 0.948700 -0.316200
vn 0.000000 -0.922300 0.386500
vn 0.000000 0.951200 0.308500
vn 0.000000 -0.917200 -0.398500
vn 0.000000 0.922300 -0.386500
vn 0.000000 -0.911200 0.412000
vn 0.000000 0.917200 0.398500
vn 0.000000 0.000000 -1.000000
vn 0.000000 0.911200 -0.412000
vn 0.000000 0.680400 -0.732800
vn 0.000000 0.833100 0.553100
vn 0.000000 -0.909900 -0.414700
vn 0.000000 -0.943000 0.332800
vn 0.000000 -0.963400 -0.268100
vn 0.000000 -0.957000 0.289900
vn 0.000000 0.847400 0.531000
vn 0.000000 0.656800 -0.754100
vn 0.000000 0.597000 -0.802300
vn 0.000000 0.765500 0.643400
vn 0.000000 0.502400 0.864700
vn 0.000000 0.080100 0.996800
vn 0.000000 -0.442200 0.896900
vn 0.000000 -0.682800 0.730600
vn 0.000000 0.306700 -0.951800
vn -0.000000 -0.246800 -0.969100
vn 0.000000 -0.587900 -0.809000
vn 0.000000 -0.784300 -0.620400
vn 0.000000 0.813900 -0.581000
vn 0.000000 0.990700 -0.136200
vn 0.000000 0.982000 0.188800
vn 0.000000 0.903800 0.428000
vn -0.354000 0.558300 -0.750300
vn -0.786100 0.369000 -0.495900
vn -0.943500 0.197800 -0.265800
vn -0.994600 0.062100 -0.083400
vn 0.354000 0.558300 -0.750300
vn 0.786100 0.369000 -0.495900
vn 0.943500 0.197800 -0.265800
vn 0.994600 0.062100 -0.083400
vn 0.000000 -0.852700 -0.522300
vn -0.653200 0.000000 -0.757100
vn 0.653200 0.000000 -0.757100
vn 0.653200 -0.378600 -0.655700
vn -0.653200 -0.378600 -0.655700
vn 0.653200 -0.655700 -0.378600
vn -0.653200 -0.655700 -0.378600
vn 0.653200 -0.757100 0.000000
vn -0.653200 -0.757100 0.000000
vn 0.653200 -0.655700 0.378600
vn -0.653200 -0.655700 0.378600
vn 0.653200 -0.378600 0.655700
vn -0.653200 -0.378600 0.655700
vn 0.653200 0.000000 0.757100
vn -0.653200 0.000000 0.757100
vn 0.653200 0.378600 0.655700
vn -0.653200 0.378600 0.655700
vn 0.653200 0.655700 0.378600
vn -0.653200 0.655700 0.378600
vn 0.653200 0.757100 0.000000
vn -0.653200 0.757100 0.000000
vn 0.653200 0.655700 -0.378600
vn -0.653200 0.655700 -0.378600
vn 0.653200 0.378600 -0.655700
vn -0.653200 0.378600 -0.655700
usemtl Blue
s off
f 80//1 82//1 81//1 79//1
f 85//2 81//2 88//2 90//2
f 86//3 84//3 83//3 85//3
f 84//4 80//4 79//4 83//4
f 79//5 81//5 85//5 83//5
f 84//6 86//6 82//6 80//6
f 90//7 88//7 92//7 94//7
f 86//3 85//3 90//3 89//3
f 82//8 86//8 89//8 87//8
f 81//1 82//1 87//1 88//1
f 94//9 92//9 96//9 98//9
f 89//3 90//3 94//3 93//3
f 87//10 89//10 93//10 91//10
f 88//1 87//1 91//1 92//1
f 98//11 96//11 100//11 102//11
f 93//3 94//3 98//3 97//3
f 91//12 93//12 97//12 95//12
f 92//1 91//1 95//1 96//1
f 102//13 100//13 104//13 106//13
f 97//3 98//3 102//3 101//3
f 95//14 97//14 101//14 99//14
f 96//1 95//1 99//1 100//1
f 103//15 105//15 106//15 104//15
f 101//3 102//3 106//3 105//3
f 99//16 101//16 105//16 103//16
f 100//1 99//1 103//1 104//1
usemtl Brownish
f 4//17 8//17 7//17 3//17
f 6//18 2//18 1//18 5//18
f 9//19 3//19 7//19 14//19
f 2//1 4//1 108//1
f 1//20 11//20 12//20 5//20
f 11//21 10//21 13//21 12//21
f 10//22 9//22 14//22 13//22
f 17//3 16//3 109//3
f 6//4 8//4 16//4 17//4
f 4//4 2//4 18//4 15//4
f 2//4 6//4 17//4 18//4
f 8//4 4//4 15//4 16//4
f 21//3 23//3 110//3
f 19//1 29//1 111//1
f 28//23 21//23 44//23 48//23
f 16//24 15//24 19//24 20//24
f 15//1 18//1 112//1
f 33//25 49//25 43//25 39//25
f 21//3 24//3 23//3
f 24//3 25//3 23//3
f 25//3 26//3 23//3
f 26//3 22//3 23//3
f 27//1 30//1 29//1
f 30//1 31//1 29//1
f 31//1 32//1 29//1
f 32//1 28//1 29//1
f 21//26 28//26 32//26 24//26
f 24//27 32//27 31//27 25//27
f 25//28 31//28 30//28 26//28
f 26//29 30//29 27//29 22//29
f 18//30 17//30 22//30 27//30
f 33//31 39//31 42//31 35//31
f 35//32 42//32 41//32 36//32
f 36//33 41//33 40//33 37//33
f 37//34 40//34 38//34 34//34
f 43//35 49//35 52//35 45//35
f 45//36 52//36 51//36 46//36
f 46//37 51//37 50//37 47//37
f 47//38 50//38 48//38 44//38
f 49//39 33//39 35//39 52//39
f 52//40 35//40 36//40 51//40
f 51//41 36//41 37//41 50//41
f 50//42 37//42 34//42 48//42
f 39//43 43//43 45//43 42//43
f 42//44 45//44 46//44 41//44
f 41//45 46//45 47//45 40//45
f 40//46 47//46 44//46 38//46
f 20//47 19//47 34//47 38//47
f 53//1 55//1 57//1
f 54//3 58//3 56//3
f 53//1 57//1 59//1
f 54//3 60//3 58//3
f 53//1 59//1 61//1
f 54//3 62//3 60//3
f 53//1 61//1 63//1
f 54//3 64//3 62//3
f 53//1 63//1 65//1
f 54//3 66//3 64//3
f 53//1 65//1 67//1
f 54//3 68//3 66//3
f 53//1 67//1 69//1
f 54//3 70//3 68//3
f 53//1 69//1 71//1
f 54//3 72//3 70//3
f 53//1 71//1 73//1
f 54//3 74//3 72//3
f 53//1 73//1 75//1
f 54//3 76//3 74//3
f 53//1 75//1 77//1
f 54//3 78//3 76//3
f 53//1 77//1 55//1
f 54//3 56//3 78//3
f 8//3 6//3 107//3
f 6//3 5//3 107//3
f 5//3 12//3 107//3
f 12//3 13//3 107//3
f 13//3 14//3 107//3
f 14//3 7//3 107//3
f 7//3 8//3 107//3
f 4//1 3//1 108//1
f 3//1 9//1 108//1
f 9//1 10//1 108//1
f 10//1 11//1 108//1
f 11//1 1//1 108//1
f 1//1 2//1 108//1
f 16//3 20//3 109//3
f 20//3 23//3 109//3
f 23//3 22//3 109//3
f 22//3 17//3 109//3
f 23//3 20//3 110//3
f 20//3 38//3 110//3
f 38//3 44//3 110//3
f 44//3 21//3 110//3
f 29//1 28//1 111//1
f 28//1 48//1 111//1
f 48//1 34//1 111//1
f 34//1 19//1 111//1
f 18//1 27//1 112//1
f 27//1 29//1 112//1
f 29//1 19//1 112//1
f 19//1 15//1 112//1
s 1
f 55//48 56//49 58//50 57//51
f 57//51 58//50 60//52 59//53
f 59//53 60//52 62//54 61//55
f 61//55 62//54 64//56 63//57
f 63//57 64//56 66//58 65//59
f 65//59 66//58 68//60 67//61
f 67//61 68//60 70//62 69//63
f 69//63 70//62 72//64 71//65
f 71//65 72//64 74//66 73//67
f 73//67 74//66 76//68 75//69
f 75//69 76//68 78//70 77//71
f 77//71 78//70 56//49 55//48
