# Blender v2.74 (sub 0) OBJ File: 'icons.blend'
# www.blender.org
mtllib icon_pharmacy.mtl
o Pharmacy_Cube.004
v 0.000000 2.057725 -1.661750
v 0.000000 2.360787 -1.758627
v 0.000000 2.171522 -1.747923
v 0.000000 2.282450 -1.783382
v 0.154250 2.086676 -1.632799
v 0.080660 2.375926 -1.743488
v 0.144391 2.198622 -1.720823
v 0.117455 2.304495 -1.761338
v 0.267169 2.165770 -1.553705
v 0.139707 2.417286 -1.702128
v 0.250092 2.272661 -1.646784
v 0.203438 2.364722 -1.701110
v 0.308500 2.273815 -1.445660
v 0.161320 2.473785 -1.645629
v 0.288782 2.373800 -1.545645
v 0.234910 2.446994 -1.618839
v 0.267169 2.381860 -1.337615
v 0.139707 2.530284 -1.589131
v 0.250092 2.474939 -1.444505
v 0.203438 2.529266 -1.536567
v 0.154250 2.460955 -1.258520
v 0.080660 2.571644 -1.547771
v 0.144391 2.548978 -1.370466
v 0.117455 2.589493 -1.476339
v 0.000000 2.489906 -1.229569
v 0.000000 2.586782 -1.532632
v 0.000000 2.576079 -1.343366
v 0.000000 2.611538 -1.454295
v -0.154250 2.460955 -1.258520
v -0.080660 2.571644 -1.547771
v -0.144391 2.548978 -1.370466
v -0.117455 2.589493 -1.476339
v -0.267169 2.381860 -1.337614
v -0.139707 2.530284 -1.589131
v -0.250092 2.474939 -1.444505
v -0.203438 2.529266 -1.536566
v -0.308500 2.273815 -1.445660
v -0.161320 2.473785 -1.645629
v -0.288782 2.373800 -1.545644
v -0.234910 2.446994 -1.618838
v -0.267169 2.165770 -1.553705
v -0.139707 2.417286 -1.702128
v -0.250092 2.272661 -1.646784
v -0.203438 2.364722 -1.701110
v -0.154250 2.086676 -1.632799
v -0.080660 2.375926 -1.743488
v -0.144391 2.198622 -1.720823
v -0.117455 2.304495 -1.761338
v 0.000000 1.629102 -1.233127
v 0.000000 1.513180 -0.870485
v 0.000000 1.525988 -1.096959
v 0.000000 1.483557 -0.964222
v 0.066193 1.525603 -0.858061
v 0.154250 1.658052 -1.204176
v 0.110221 1.504244 -0.943535
v 0.142453 1.552724 -1.070222
v 0.114650 1.559545 -0.824120
v 0.267169 1.737147 -1.125081
v 0.190909 1.560763 -0.887017
v 0.246735 1.625769 -0.997177
v 0.132386 1.605910 -0.777754
v 0.308500 1.845192 -1.017036
v 0.220443 1.637968 -0.809812
v 0.284905 1.725551 -0.897395
v 0.114650 1.652275 -0.731389
v 0.267169 1.953237 -0.908991
v 0.190909 1.715173 -0.732607
v 0.246735 1.825333 -0.797614
v 0.066193 1.686217 -0.697447
v 0.154250 2.032332 -0.829897
v 0.110221 1.771691 -0.676089
v 0.142453 1.898378 -0.724568
v 0.000000 1.698640 -0.685024
v 0.000000 2.061282 -0.800946
v 0.000000 1.792378 -0.655402
v 0.000000 1.925114 -0.697832
v -0.066193 1.686217 -0.697447
v -0.154250 2.032332 -0.829897
v -0.110221 1.771691 -0.676089
v -0.142453 1.898378 -0.724568
v -0.114650 1.652275 -0.731389
v -0.267169 1.953237 -0.908991
v -0.190909 1.715173 -0.732607
v -0.246735 1.825333 -0.797614
v -0.132386 1.605910 -0.777754
v -0.308500 1.845192 -1.017036
v -0.220443 1.637968 -0.809812
v -0.284905 1.725551 -0.897395
v -0.114650 1.559545 -0.824119
v -0.267169 1.737147 -1.125081
v -0.190909 1.560763 -0.887017
v -0.246735 1.625769 -0.997177
v -0.066193 1.525603 -0.858061
v -0.154250 1.658052 -1.204176
v -0.110222 1.504245 -0.943535
v -0.142453 1.552724 -1.070222
v -0.154250 1.872364 -1.418488
v 0.000000 1.843413 -1.447438
v 0.154250 1.872364 -1.418488
v 0.267169 1.951458 -1.339393
v 0.308500 2.059504 -1.231348
v 0.267169 2.167549 -1.123303
v 0.154250 2.246643 -1.044208
v 0.000000 2.275594 -1.015258
v -0.154250 2.246643 -1.044208
v -0.267169 2.167549 -1.123303
v -0.308500 2.059504 -1.231348
v -0.267169 1.951459 -1.339393
v -0.308500 0.684413 1.000000
v -0.308500 1.351080 1.000000
v -0.308500 2.017747 0.333333
v -0.308500 2.017747 -0.333333
v -0.308500 1.351080 -1.000000
v -0.308500 0.684413 -1.000000
v -0.308500 0.017747 -0.333333
v -0.308500 0.017747 0.333333
v 0.308500 1.351080 -1.000000
v 0.308500 0.684413 -1.000000
v 0.308500 2.017747 -0.333333
v 0.308500 2.017747 0.333333
v 0.308500 1.351080 1.000000
v 0.308500 0.684413 1.000000
v 0.308500 0.017747 0.333333
v 0.308500 0.017747 -0.333333
v 0.308500 1.351080 -0.333333
v 0.308500 0.684413 -0.333333
v 0.308500 1.351080 0.333333
v 0.308500 0.684413 0.333333
v -0.308500 1.351080 0.333333
v -0.308500 0.684413 0.333333
v -0.308500 1.351080 -0.333333
v -0.308500 0.684413 -0.333333
v 0.000000 2.473785 -1.645629
v 0.000000 1.605910 -0.777754
vn 0.000000 0.000000 -1.000000
vn 0.000000 1.000000 0.000000
vn 0.000000 -1.000000 0.000000
vn 0.000000 0.000000 1.000000
vn 1.000000 0.000000 0.000000
vn -1.000000 0.000000 0.000000
vn 0.000000 -0.707100 -0.707100
vn 0.000000 -0.657500 -0.753400
vn 0.495800 -0.564100 -0.660200
vn 0.496900 -0.613600 -0.613600
vn 0.997700 0.048400 -0.048400
vn 0.862200 0.403100 0.306500
vn 0.864200 0.355700 0.355700
vn 0.495800 0.660200 0.564100
vn 0.496900 0.613600 0.613600
vn 0.000000 0.753400 0.657500
vn 0.000000 0.707100 0.707100
vn -0.495800 0.660200 0.564100
vn -0.496900 0.613600 0.613600
vn -0.862200 0.403100 0.306500
vn -0.864200 0.355700 0.355700
vn -0.997700 0.048400 -0.048400
vn -0.862200 -0.306500 -0.403100
vn -0.864200 -0.355700 -0.355700
vn -0.495800 -0.564100 -0.660200
vn -0.496900 -0.613600 -0.613600
vn 0.864200 -0.355700 -0.355700
vn 0.862200 -0.306500 -0.403100
vn 0.000000 -0.467800 -0.883800
vn 0.475000 -0.377900 -0.794700
vn 0.000000 -0.035000 -0.999400
vn 0.363100 0.034100 -0.931100
vn 0.000000 0.486600 -0.873600
vn 0.135400 0.512400 -0.848000
vn 0.825600 -0.130500 -0.548900
vn 0.630700 0.223700 -0.743100
vn 0.235300 0.583100 -0.777500
vn 0.955000 0.209600 -0.209600
vn 0.729300 0.483800 -0.483800
vn 0.272100 0.680400 -0.680400
vn 0.825600 0.548900 0.130500
vn 0.630700 0.743100 -0.223700
vn 0.235300 0.777500 -0.583100
vn 0.475000 0.794700 0.377900
vn 0.363100 0.931100 -0.034100
vn 0.135400 0.848000 -0.512400
vn 0.000000 0.883800 0.467800
vn 0.000000 0.999400 0.035000
vn 0.000000 0.873600 -0.486600
vn -0.475000 0.794700 0.377900
vn -0.363100 0.931100 -0.034100
vn -0.135400 0.848000 -0.512400
vn -0.825600 0.548900 0.130500
vn -0.630700 0.743100 -0.223700
vn -0.235300 0.777500 -0.583100
vn -0.955000 0.209600 -0.209600
vn -0.729300 0.483800 -0.483800
vn -0.272100 0.680400 -0.680400
vn -0.825600 -0.130500 -0.548900
vn -0.630700 0.223700 -0.743100
vn -0.235300 0.583100 -0.777500
vn -0.475000 -0.377900 -0.794700
vn -0.363100 0.034100 -0.931100
vn -0.135400 0.512400 -0.848000
vn 0.000000 0.707100 -0.707100
vn 0.000000 -0.873600 0.486600
vn 0.135400 -0.848000 0.512400
vn 0.000000 -0.707100 0.707100
vn 0.000000 -0.753400 -0.657500
vn 0.495800 -0.660200 -0.564100
vn 0.475000 -0.794700 -0.377900
vn 0.000000 -0.883800 -0.467800
vn 0.363100 -0.931100 0.034100
vn 0.000000 -0.999400 -0.035000
vn 0.862200 -0.403100 -0.306500
vn 0.825600 -0.548900 -0.130500
vn 0.630700 -0.743100 0.223700
vn 0.235300 -0.777500 0.583100
vn 0.997700 -0.048400 0.048400
vn 0.955000 -0.209600 0.209600
vn 0.729300 -0.483800 0.483800
vn 0.272100 -0.680400 0.680400
vn 0.862200 0.306500 0.403100
vn 0.825600 0.130500 0.548900
vn 0.630700 -0.223700 0.743100
vn 0.235300 -0.583100 0.777500
vn 0.495800 0.564100 0.660200
vn 0.475000 0.377900 0.794700
vn 0.363100 -0.034100 0.931100
vn 0.135400 -0.512400 0.848000
vn 0.000000 0.657500 0.753400
vn 0.000000 0.467800 0.883800
vn 0.000000 0.035000 0.999400
vn 0.000000 -0.486600 0.873600
vn -0.495800 0.564100 0.660200
vn -0.475000 0.377900 0.794700
vn -0.363100 -0.034100 0.931100
vn -0.135400 -0.512400 0.848000
vn -0.862200 0.306500 0.403100
vn -0.825600 0.130500 0.548900
vn -0.630700 -0.223700 0.743100
vn -0.235300 -0.583100 0.777500
vn -0.997700 -0.048400 0.048400
vn -0.955000 -0.209600 0.209600
vn -0.729300 -0.483800 0.483800
vn -0.272100 -0.680400 0.680400
vn -0.862200 -0.403100 -0.306500
vn -0.825600 -0.548900 -0.130500
vn -0.630700 -0.743100 0.223700
vn -0.235300 -0.777500 0.583100
vn -0.495800 -0.660200 -0.564100
vn -0.475000 -0.794700 -0.377900
vn -0.363100 -0.931100 0.034100
vn -0.135400 -0.848000 0.512400
usemtl Green
s off
f 131//1 112//1 119//1 125//1
f 131//2 125//2 117//2 113//2
f 132//3 114//3 118//3 126//3
f 126//1 124//1 115//1 132//1
f 127//2 129//2 110//2 121//2
f 120//2 119//2 112//2 111//2
f 128//4 130//4 116//4 123//4
f 116//3 115//3 124//3 123//3
f 121//4 110//4 109//4 122//4
f 129//4 127//4 120//4 111//4
f 126//5 128//5 123//5 124//5
f 117//5 125//5 126//5 118//5
f 119//5 120//5 127//5 125//5
f 125//5 127//5 128//5 126//5
f 127//5 121//5 122//5 128//5
f 113//1 117//1 118//1 114//1
f 128//3 122//3 109//3 130//3
f 130//6 132//6 115//6 116//6
f 110//6 129//6 130//6 109//6
f 111//6 112//6 131//6 129//6
f 129//6 131//6 132//6 130//6
f 131//6 113//6 114//6 132//6
usemtl White
s 1
f 98//7 1//8 5//9 99//10
f 101//5 13//11 17//12 102//13
f 102//13 17//12 21//14 103//15
f 103//15 21//14 25//16 104//17
f 104//17 25//16 29//18 105//19
f 105//19 29//18 33//20 106//21
f 106//21 33//20 37//22 107//6
f 107//6 37//22 41//23 108//24
f 108//24 41//23 45//25 97//26
f 100//27 9//28 13//11 101//5
f 97//26 45//25 1//8 98//7
f 5//9 1//8 3//29 7//30
f 7//30 3//29 4//31 8//32
f 8//32 4//31 2//33 6//34
f 9//28 5//9 7//30 11//35
f 11//35 7//30 8//32 12//36
f 12//36 8//32 6//34 10//37
f 13//11 9//28 11//35 15//38
f 15//38 11//35 12//36 16//39
f 16//39 12//36 10//37 14//40
f 17//12 13//11 15//38 19//41
f 19//41 15//38 16//39 20//42
f 20//42 16//39 14//40 18//43
f 21//14 17//12 19//41 23//44
f 23//44 19//41 20//42 24//45
f 24//45 20//42 18//43 22//46
f 25//16 21//14 23//44 27//47
f 27//47 23//44 24//45 28//48
f 28//48 24//45 22//46 26//49
f 29//18 25//16 27//47 31//50
f 31//50 27//47 28//48 32//51
f 32//51 28//48 26//49 30//52
f 33//20 29//18 31//50 35//53
f 35//53 31//50 32//51 36//54
f 36//54 32//51 30//52 34//55
f 37//22 33//20 35//53 39//56
f 39//56 35//53 36//54 40//57
f 40//57 36//54 34//55 38//58
f 41//23 37//22 39//56 43//59
f 43//59 39//56 40//57 44//60
f 44//60 40//57 38//58 42//61
f 45//25 41//23 43//59 47//62
f 47//62 43//59 44//60 48//63
f 48//63 44//60 42//61 46//64
f 1//8 45//25 47//62 3//29
f 3//29 47//62 48//63 4//31
f 4//31 48//63 46//64 2//33
f 99//10 5//9 9//28 100//27
f 6//34 2//33 133//65
f 2//33 46//64 133//65
f 46//64 42//61 133//65
f 42//61 38//58 133//65
f 38//58 34//55 133//65
f 34//55 30//52 133//65
f 30//52 26//49 133//65
f 26//49 22//46 133//65
f 22//46 18//43 133//65
f 18//43 14//40 133//65
f 14//40 10//37 133//65
f 10//37 6//34 133//65
usemtl Black
f 50//66 53//67 134//68
f 49//69 54//70 56//71 51//72
f 51//72 56//71 55//73 52//74
f 52//74 55//73 53//67 50//66
f 54//70 58//75 60//76 56//71
f 56//71 60//76 59//77 55//73
f 55//73 59//77 57//78 53//67
f 58//75 62//79 64//80 60//76
f 60//76 64//80 63//81 59//77
f 59//77 63//81 61//82 57//78
f 62//79 66//83 68//84 64//80
f 64//80 68//84 67//85 63//81
f 63//81 67//85 65//86 61//82
f 66//83 70//87 72//88 68//84
f 68//84 72//88 71//89 67//85
f 67//85 71//89 69//90 65//86
f 70//87 74//91 76//92 72//88
f 72//88 76//92 75//93 71//89
f 71//89 75//93 73//94 69//90
f 74//91 78//95 80//96 76//92
f 76//92 80//96 79//97 75//93
f 75//93 79//97 77//98 73//94
f 78//95 82//99 84//100 80//96
f 80//96 84//100 83//101 79//97
f 79//97 83//101 81//102 77//98
f 82//99 86//103 88//104 84//100
f 84//100 88//104 87//105 83//101
f 83//101 87//105 85//106 81//102
f 86//103 90//107 92//108 88//104
f 88//104 92//108 91//109 87//105
f 87//105 91//109 89//110 85//106
f 90//107 94//111 96//112 92//108
f 92//108 96//112 95//113 91//109
f 91//109 95//113 93//114 89//110
f 94//111 49//69 51//72 96//112
f 96//112 51//72 52//74 95//113
f 95//113 52//74 50//66 93//114
f 54//70 99//10 100//27 58//75
f 94//111 97//26 98//7 49//69
f 58//75 100//27 101//5 62//79
f 90//107 108//24 97//26 94//111
f 86//103 107//6 108//24 90//107
f 82//99 106//21 107//6 86//103
f 78//95 105//19 106//21 82//99
f 74//91 104//17 105//19 78//95
f 70//87 103//15 104//17 74//91
f 66//83 102//13 103//15 70//87
f 62//79 101//5 102//13 66//83
f 49//69 98//7 99//10 54//70
f 53//67 57//78 134//68
f 57//78 61//82 134//68
f 61//82 65//86 134//68
f 65//86 69//90 134//68
f 69//90 73//94 134//68
f 73//94 77//98 134//68
f 77//98 81//102 134//68
f 81//102 85//106 134//68
f 85//106 89//110 134//68
f 89//110 93//114 134//68
f 93//114 50//66 134//68
